<svg id="Otimizações_dos_anúncios" data-name="Otimizações dos anúncios" xmlns="http://www.w3.org/2000/svg" width="120" height="120" viewBox="0 0 120 120">
  <circle id="Elipse_11975" data-name="Elipse 11975" cx="60" cy="60" r="60" transform="translate(0 0)" fill="#fff"/>
  <path id="União_4" data-name="União 4" d="M7.628,19.5H5.2V12.136l1.256-.266L3.641,11.7l-1.04-.78L0,9.709V6.762l3.641-1.3,1.994-.607h5.325L22.712,0V16.384L11.17,12.034l-.247.1-1.314-.078L8.755,19.5Z" transform="translate(57.986 36.387)" fill="#fcd64f"/>
  <g id="file-graph-website-report-Digital_Marketing" data-name="file-graph-website-report-Digital Marketing" transform="translate(33.801 33.959)">
    <path id="Caminho_4734" data-name="Caminho 4734" d="M20.328,27.22H15V21.889A.889.889,0,0,0,14.108,21a7.108,7.108,0,1,0,7.108,7.108A.889.889,0,0,0,20.328,27.22Zm-6.22,6.22a5.331,5.331,0,0,1-.889-10.589v5.257a.889.889,0,0,0,.889.889h5.257A5.34,5.34,0,0,1,14.108,33.439Z" transform="translate(-2.557 -4.118)" fill="#231f20"/>
    <path id="Caminho_4735" data-name="Caminho 4735" d="M17.889,18a.889.889,0,0,0-.889.889v6.22a.889.889,0,0,0,.889.889h6.22A.889.889,0,0,0,25,25.108,7.116,7.116,0,0,0,17.889,18Zm.889,6.22V19.851a5.346,5.346,0,0,1,4.369,4.369Z" transform="translate(-3.672 -3.784)" fill="#231f20"/>
    <path id="Caminho_4736" data-name="Caminho 4736" d="M7,40H20.328v1.777H7Z" transform="translate(-2.557 -6.236)" fill="#231f20"/>
    <path id="Caminho_4737" data-name="Caminho 4737" d="M7,44H20.328v1.777H7Z" transform="translate(-2.557 -6.682)" fill="#231f20"/>
    <path id="Caminho_4738" data-name="Caminho 4738" d="M7,48H8.777v1.777H7Z" transform="translate(-2.557 -7.128)" fill="#231f20"/>
    <path id="Caminho_4739" data-name="Caminho 4739" d="M11,48h9.774v1.777H11Z" transform="translate(-3.003 -7.128)" fill="#231f20"/>
    <path id="Caminho_4740" data-name="Caminho 4740" d="M53.535,26.879H42.872v-7.5l5.918,2.115a.883.883,0,0,0,1.191-.835V15.328h.889a2.666,2.666,0,0,0,0-5.331H49.98V4.666a.9.9,0,0,0-.373-.729.92.92,0,0,0-.817-.107L42.872,5.945V3.777A1.782,1.782,0,0,0,41.1,2H12.662a.918.918,0,0,0-.631.258L2.258,12.031A.918.918,0,0,0,2,12.662V50.869a.889.889,0,0,0,.889.889H22.436v2.666a.889.889,0,0,0,.889.889h30.21a.889.889,0,0,0,.889-.889V27.767a.889.889,0,0,0-.889-.889Zm-3.554-15.1h.889a.889.889,0,1,1,0,1.777H49.98ZM48.2,5.927V19.4l-10.662-3.8V9.73Zm-36.43-.9v6.744H5.03ZM22.436,27.767V49.98H3.777V13.551h8.885a.889.889,0,0,0,.889-.889V3.777H41.1v2.8L36.5,8.22H29.544a.889.889,0,0,0-.889.889v.2l-2.879.72a.889.889,0,0,0-.675.862v3.554a.889.889,0,0,0,.675.862l2.879.72v.2a.889.889,0,0,0,.889.889h.889v7.108a.889.889,0,0,0,.889.889h3.554a.879.879,0,0,0,.88-.791l.8-7.188,4.54,1.626v8.13H23.325a.889.889,0,0,0-.889.889Zm8-12.439V10h5.331v5.331ZM34.769,17.1l-.693,6.22H32.21V17.1Zm-6.113-5.971v3.057l-1.777-.444V11.578Zm23.99,42.4H24.213V33.987H52.646Zm0-21.325H24.213V28.656H52.646Z" transform="translate(-2 -2)" fill="#231f20"/>
    <path id="Caminho_4741" data-name="Caminho 4741" d="M29,33h1.777v1.777H29Z" transform="translate(-5.01 -5.456)" fill="#231f20"/>
    <path id="Caminho_4742" data-name="Caminho 4742" d="M33,33h1.777v1.777H33Z" transform="translate(-5.456 -5.456)" fill="#231f20"/>
    <path id="Caminho_4743" data-name="Caminho 4743" d="M37,33h1.777v1.777H37Z" transform="translate(-5.902 -5.456)" fill="#231f20"/>
    <path id="Caminho_4744" data-name="Caminho 4744" d="M50.548,53.439V41.889A.889.889,0,0,0,49.659,41H46.1a.889.889,0,0,0-.889.889V53.439h-.889v-8a.889.889,0,0,0-.889-.889H39.885a.889.889,0,0,0-.889.889v8h-.889V48.108a.889.889,0,0,0-.889-.889H33.666a.889.889,0,0,0-.889.889v5.331H31v1.777H52.325V53.439Zm-14.216,0H34.554V49h1.777Zm6.22,0H40.774V46.331h1.777Zm6.22,0H46.993V42.777h1.777Z" transform="translate(-5.233 -6.347)" fill="#231f20"/>
  </g>
</svg>
