<svg id="Painel_de_resultados_em_tempo_real" data-name="Painel de resultados em tempo real" xmlns="http://www.w3.org/2000/svg" width="120" height="120" viewBox="0 0 120 120">
  <circle id="Elipse_11975" data-name="Elipse 11975" cx="60" cy="60" r="60" transform="translate(0 0)" fill="#fff"/>
  <circle id="Elipse_11980" data-name="Elipse 11980" cx="5" cy="5" r="5" transform="translate(77 31)" fill="#fcd64f"/>
  <rect id="Retângulo_2615" data-name="Retângulo 2615" width="3" height="5" transform="translate(46 62)" fill="#fcd64f"/>
  <rect id="Retângulo_2616" data-name="Retângulo 2616" width="4" height="8" transform="translate(39 59)" fill="#fcd64f"/>
  <rect id="Retângulo_2617" data-name="Retângulo 2617" width="4" height="12" transform="translate(52 55)" fill="#fcd64f"/>
  <rect id="Retângulo_2618" data-name="Retângulo 2618" width="4" height="9" transform="translate(59 58)" fill="#fcd64f"/>
  <g id="_001-dashboard" data-name="001-dashboard" transform="translate(34.841 30.427)">
    <path id="Caminho_4676" data-name="Caminho 4676" d="M49.152,29.831V12.969a6.016,6.016,0,1,0-6.879-5.95H1V41.414H26.84A13.749,13.749,0,1,0,49.152,29.831ZM48.293,2.72a4.3,4.3,0,1,1-4.3,4.3A4.3,4.3,0,0,1,48.293,2.72ZM2.72,8.739H42.527a6.015,6.015,0,0,0,.952,1.879L38.22,15.877a2.49,2.49,0,0,0-2.211,0l-1.733-1.733a2.556,2.556,0,0,0,.258-1.106,2.58,2.58,0,0,0-5.159,0,2.537,2.537,0,0,0,.259,1.1l-4.312,4.312a2.556,2.556,0,0,0-1.106-.258,2.58,2.58,0,1,0,2.58,2.58,2.537,2.537,0,0,0-.259-1.1l4.312-4.312a2.493,2.493,0,0,0,2.211,0l1.733,1.733a2.555,2.555,0,0,0-.258,1.106,2.58,2.58,0,0,0,5.159,0,2.537,2.537,0,0,0-.259-1.1l5.26-5.259a5.982,5.982,0,0,0,2.738,1.137V28.658a13.674,13.674,0,0,0-17.2,2.826V27.656H25.076V37.974h1.971a13.793,13.793,0,0,0-.207,1.72H2.72Zm34.395,8.6a.86.86,0,1,1-.86.86A.861.861,0,0,1,37.114,17.337Zm-6.019-4.3a.86.86,0,1,1,.86.86A.861.861,0,0,1,31.1,13.038Zm-6.019,7.739a.86.86,0,1,1-.86-.86A.861.861,0,0,1,25.076,20.777ZM40.554,47.433a6.879,6.879,0,1,1,6.879-6.879A6.887,6.887,0,0,1,40.554,47.433ZM28.516,33.908a13.654,13.654,0,0,0-1.022,2.347h-.7V29.376h1.72ZM39.694,28.56V32a8.581,8.581,0,0,0-6.973,12.084L29.738,45.8A12,12,0,0,1,39.694,28.56Zm.86,24.032A12.032,12.032,0,0,1,30.59,47.3l2.995-1.729a8.57,8.57,0,0,0,13.938,0L50.518,47.3A12.032,12.032,0,0,1,40.554,52.592ZM51.369,45.8l-2.983-1.722A8.581,8.581,0,0,0,41.414,32V28.56A12,12,0,0,1,51.369,45.8Z" transform="translate(-1 -1)" fill="#231f20"/>
    <path id="Caminho_4677" data-name="Caminho 4677" d="M46.159,41a5.159,5.159,0,1,0,5.159,5.159A5.164,5.164,0,0,0,46.159,41Zm0,8.6A3.439,3.439,0,1,1,49.6,46.159,3.443,3.443,0,0,1,46.159,49.6Z" transform="translate(-6.605 -6.605)" fill="#231f20"/>
    <path id="Caminho_4678" data-name="Caminho 4678" d="M5,12H6.72v1.72H5Z" transform="translate(-1.561 -2.541)" fill="#231f20"/>
    <path id="Caminho_4679" data-name="Caminho 4679" d="M9,12H21.038v1.72H9Z" transform="translate(-2.121 -2.541)" fill="#231f20"/>
    <path id="Caminho_4680" data-name="Caminho 4680" d="M5,16H6.72v1.72H5Z" transform="translate(-1.561 -3.102)" fill="#231f20"/>
    <path id="Caminho_4681" data-name="Caminho 4681" d="M9,16H21.038v1.72H9Z" transform="translate(-2.121 -3.102)" fill="#231f20"/>
    <path id="Caminho_4682" data-name="Caminho 4682" d="M5,20H6.72v1.72H5Z" transform="translate(-1.561 -3.663)" fill="#231f20"/>
    <path id="Caminho_4683" data-name="Caminho 4683" d="M9,20H21.038v1.72H9Z" transform="translate(-2.121 -3.663)" fill="#231f20"/>
    <path id="Caminho_4684" data-name="Caminho 4684" d="M5,24H6.72v1.72H5Z" transform="translate(-1.561 -4.223)" fill="#231f20"/>
    <path id="Caminho_4685" data-name="Caminho 4685" d="M9,24H21.038v1.72H9Z" transform="translate(-2.121 -4.223)" fill="#231f20"/>
    <path id="Caminho_4686" data-name="Caminho 4686" d="M5,42.6h5.159V34H5ZM6.72,35.72h1.72v5.159H6.72Z" transform="translate(-1.561 -5.624)" fill="#231f20"/>
    <path id="Caminho_4687" data-name="Caminho 4687" d="M13,42.879h5.159V36H13Zm1.72-5.159h1.72v3.439H14.72Z" transform="translate(-2.682 -5.905)" fill="#231f20"/>
    <path id="Caminho_4688" data-name="Caminho 4688" d="M21,41.758h5.159V28H21ZM22.72,29.72h1.72V40.038H22.72Z" transform="translate(-3.803 -4.784)" fill="#231f20"/>
  </g>
</svg>
