<svg id="Planejamento_de_anúncios" data-name="Planejamento de anúncios" xmlns="http://www.w3.org/2000/svg" width="120" height="120" viewBox="0 0 120 120">
  <circle id="Elipse_11975" data-name="Elipse 11975" cx="60" cy="60" r="60" transform="translate(0 0)" fill="#fff"/>
  <path id="Caminho_4715" data-name="Caminho 4715" d="M-3236,1955.333l1.214,2.427v3.988s7.455,1.907,9.188,9.015a17.727,17.727,0,0,1-1.734,12.656h6.241s3.814-9.189-1.213-18.377S-3236,1955.333-3236,1955.333Z" transform="translate(3296.849 -1915.046)" fill="#fcd64f"/>
  <g id="_001-strategy" data-name="001-strategy" transform="translate(41.865 39.42)">
    <path id="Caminho_4701" data-name="Caminho 4701" d="M181.883,432.941a.942.942,0,1,1-.941-.941A.941.941,0,0,1,181.883,432.941Zm0,0" transform="translate(-163.053 -391.327)" fill="#231f20"/>
    <path id="Caminho_4702" data-name="Caminho 4702" d="M13.249,24.339a15.244,15.244,0,0,0-5.8,10.123,2.827,2.827,0,0,0-2.74,2.822v3.663A6.561,6.561,0,0,0,0,47.264a.941.941,0,0,0,.941.942H34.836a.941.941,0,0,0,.942-.941,6.561,6.561,0,0,0-4.707-6.317V37.284a2.828,2.828,0,0,0-2.636-2.818,8.228,8.228,0,0,1,.267-4.244H33.71a.942.942,0,0,0,.9-.662,26.61,26.61,0,0,0,.67-15.618C33.268,5.9,25.519,0,18.994,0H14.217a.941.941,0,0,0-.941.941V6.259a6.568,6.568,0,0,0-5.586,6.1l-4.03,4.03a2.824,2.824,0,0,0,0,4l2.305,2.3a3.752,3.752,0,0,0,5.258.051c.591-.476,2.421-3.147,5.356-2.093a13,13,0,0,1-3.329,3.695ZM29.187,37.284v3.389H21.655a.941.941,0,1,0,0,1.883h7.532A4.691,4.691,0,0,1,33.8,46.322H1.976a4.69,4.69,0,0,1,4.614-3.766h7.532a.941.941,0,1,0,0-1.883H6.591V37.284a.942.942,0,0,1,.941-.941H28.245a.942.942,0,0,1,.941.941ZM33.451,14.4a24.193,24.193,0,0,1-.438,13.939H29.295c1.17-3.7,2.161-7.315.727-13.05a12.545,12.545,0,0,0-9.215-8.836v-2.7a3.735,3.735,0,0,0-.445-1.773C25.78,2.745,31.807,7.819,33.451,14.4Zm-15.1,6.947a6.58,6.58,0,0,0,4.751-.7.942.942,0,1,0-.834-1.688,4.4,4.4,0,0,1-4.279.238,5.731,5.731,0,0,0-5.166-.13,9.871,9.871,0,0,0-2.879,2.282,1.87,1.87,0,0,1-2.646,0l-2.306-2.3a.942.942,0,0,1,0-1.332l4.294-4.294a.941.941,0,0,0,.276-.666,4.676,4.676,0,0,1,4.657-4.684.941.941,0,0,0,.941-.941V1.883h1.9a1.871,1.871,0,0,1,1.867,1.872V7.221a.941.941,0,0,0,.782.928,10.684,10.684,0,0,1,8.489,7.6c1.407,5.627.326,8.789-1.084,13.249a10.722,10.722,0,0,0-.594,5.465H9.349a13.317,13.317,0,0,1,5.029-8.614,14.891,14.891,0,0,0,3.97-4.5Zm0,0" transform="translate(0 0)" fill="#231f20"/>
    <path id="Caminho_4703" data-name="Caminho 4703" d="M132.825,136h-1.883a.942.942,0,1,0,0,1.883h1.883a.942.942,0,0,0,0-1.883Zm0,0" transform="translate(-117.761 -123.196)" fill="#231f20"/>
  </g>
  <g id="_001-social-media" data-name="001-social-media" transform="translate(32.676 31.314)">
    <g id="Grupo_4540" data-name="Grupo 4540" transform="translate(9.709)">
      <g id="Grupo_4542" data-name="Grupo 4542">
        <path id="Caminho_4705" data-name="Caminho 4705" d="M368.782,178.563H361.3A1.436,1.436,0,0,0,359.867,180v7.481a1.436,1.436,0,0,0,1.434,1.434h7.481a1.436,1.436,0,0,0,1.434-1.434V180A1.436,1.436,0,0,0,368.782,178.563Zm.357,8.915a.358.358,0,0,1-.357.357H361.3a.358.358,0,0,1-.357-.357V180a.358.358,0,0,1,.357-.357h7.481a.358.358,0,0,1,.357.357Z" transform="translate(-359.867 -178.563)" fill="#231f20"/>
        <path id="Caminho_4706" data-name="Caminho 4706" d="M400.628,228.387a2.422,2.422,0,1,0,2.422,2.422,2.425,2.425,0,0,0-2.422-2.422Zm0,3.767a1.345,1.345,0,1,1,1.345-1.345A1.346,1.346,0,0,1,400.628,232.154Z" transform="translate(-395.345 -225.59)" fill="#231f20"/>
      </g>
    </g>
    <g id="Grupo_4543" data-name="Grupo 4543" transform="translate(40.933 2.015)">
      <path id="Caminho_4708" data-name="Caminho 4708" d="M405.294,387.26a.111.111,0,0,1-.157,0l-.3-.3a.539.539,0,1,0-.762.762l.3.3a1.19,1.19,0,0,0,1.681,0l1.541-1.541a1.19,1.19,0,0,0,0-1.681l-.3-.3a.538.538,0,1,0-.761.762l.3.3a.112.112,0,0,1,0,.158Z" transform="translate(-400.783 -381.208)" fill="#231f20"/>
      <path id="Caminho_4713" data-name="Caminho 4713" d="M365.361,340.637a5.15,5.15,0,0,0-4.61,7.445l-.521,1.945a.538.538,0,0,0,.659.659l1.817-.487a5.148,5.148,0,0,0,5.833-.362.538.538,0,1,0-.665-.847,4.071,4.071,0,0,1-4.778.181.538.538,0,0,0-.439-.073l-1.145.307.334-1.248a.539.539,0,0,0-.049-.4,4.073,4.073,0,1,1,7.265-.269.538.538,0,0,0,.978.451,5.15,5.15,0,0,0-4.678-7.3Z" transform="translate(-360.211 -340.637)" fill="#231f20"/>
    </g>
    <g id="Grupo_4541" data-name="Grupo 4541" transform="translate(0 30.298)">
      <path id="Caminho_4704" data-name="Caminho 4704" d="M406.846,65.063a.865.865,0,0,0,.863,0l2.332-1.347a.863.863,0,0,0,0-1.495l-2.332-1.347a.863.863,0,0,0-1.295.747v2.693A.865.865,0,0,0,406.846,65.063Zm.645-3.07,1.69.976-1.69.976Z" transform="translate(-402.473 -58.427)" fill="#231f20"/>
      <path id="Caminho_4714" data-name="Caminho 4714" d="M361.464,28.27h-4.983a.538.538,0,0,0,0,1.077h4.983a.522.522,0,0,1,.522.522v5.887a.522.522,0,0,1-.522.522h-8.351a.522.522,0,0,1-.522-.522V29.869a.522.522,0,0,1,.522-.522h1.216a.538.538,0,1,0,0-1.077h-1.216a1.6,1.6,0,0,0-1.6,1.6v5.887a1.6,1.6,0,0,0,1.6,1.6h8.351a1.6,1.6,0,0,0,1.6-1.6V29.869A1.6,1.6,0,0,0,361.464,28.27Z" transform="translate(-351.514 -28.27)" fill="#231f20"/>
    </g>
  </g>
</svg>
