<svg xmlns="http://www.w3.org/2000/svg" width="28.845" height="28.844" viewBox="0 0 28.845 28.844">
  <path id="Icon_awesome-whatsapp" data-name="Icon awesome-whatsapp" d="M24.524,6.441A14.3,14.3,0,0,0,2.028,23.69L0,31.094,7.578,29.1a14.25,14.25,0,0,0,6.831,1.738h.006A14.431,14.431,0,0,0,28.844,16.55a14.35,14.35,0,0,0-4.32-10.108ZM14.416,28.435a11.859,11.859,0,0,1-6.052-1.655l-.431-.258L3.438,27.7l1.2-4.385-.283-.451A11.9,11.9,0,1,1,26.43,16.55,12.013,12.013,0,0,1,14.416,28.435Zm6.516-8.9c-.354-.18-2.112-1.043-2.44-1.159s-.567-.18-.8.18-.921,1.159-1.133,1.4-.418.27-.773.09A9.722,9.722,0,0,1,10.92,15.8c-.367-.631.367-.586,1.049-1.951a.662.662,0,0,0-.032-.625c-.09-.18-.8-1.938-1.1-2.653-.29-.7-.586-.6-.8-.612s-.444-.013-.682-.013a1.323,1.323,0,0,0-.953.444,4.013,4.013,0,0,0-1.249,2.981,7,7,0,0,0,1.455,3.7,15.96,15.96,0,0,0,6.1,5.4c2.266.979,3.155,1.062,4.288.895a3.658,3.658,0,0,0,2.408-1.7,2.987,2.987,0,0,0,.206-1.7C21.524,19.8,21.286,19.711,20.931,19.537Z" transform="translate(0 -2.25)" fill="#ecd5d1" opacity="0.77"/>
</svg>
