<svg id="Suporte_especializado" data-name="Suporte especializado" xmlns="http://www.w3.org/2000/svg" width="119" height="120" viewBox="0 0 119 120">
  <ellipse id="Elipse_11975" data-name="Elipse 11975" cx="59.5" cy="60" rx="59.5" ry="60" transform="translate(0 0)" fill="#fff"/>
  <circle id="Elipse_11982" data-name="Elipse 11982" cx="9" cy="9" r="9" transform="translate(32 32)" fill="#fcd64f"/>
  <g id="_001-customer-service" data-name="001-customer-service" transform="translate(31.199 31.064)">
    <path id="Caminho_4759" data-name="Caminho 4759" d="M12.882,10.4a.826.826,0,1,0-.826-.826A.826.826,0,0,0,12.882,10.4Zm-6.607,0a.826.826,0,1,0-.826-.826A.826.826,0,0,0,6.274,10.4Zm3.3,0a.826.826,0,1,0-.826-.826A.826.826,0,0,0,9.578,10.4ZM9.4,19.153h.015l7.467,0h0a1.13,1.13,0,0,0,.576-2.1L16.32,16.38A9.578,9.578,0,1,0,0,9.578,9.68,9.68,0,0,0,9.4,19.153ZM4.014,3.933a7.868,7.868,0,0,1,5.681-2.28,7.926,7.926,0,0,1,5.092,13.9,1.206,1.206,0,0,0,.178,1.947l.008,0H9.42A7.925,7.925,0,0,1,4.014,3.933Zm51.544,50.8h-.826v-12.3a8.164,8.164,0,0,0-4.86-7.459l-4.353-1.866a6.52,6.52,0,0,0,2.795-1.757,6.842,6.842,0,0,0,1.848-4.643,6.571,6.571,0,0,0-1.582-4.273,8.551,8.551,0,0,1-2.007-5.5V12.976a12.976,12.976,0,0,0-25.953,0V16.8a8.927,8.927,0,0,1-2.145,5.666,6.689,6.689,0,0,0,3.193,10.664l-4.322,1.88a8.138,8.138,0,0,0-4.992,7.516v9.723a.826.826,0,1,0,1.652,0V42.531a6.493,6.493,0,0,1,3.99-6l5.418-2.356v4.972H20.923a2.478,2.478,0,0,0-2.464,2.739l1.361,12.844H.826a.826.826,0,1,0,0,1.652H55.558a.826.826,0,1,0,0-1.652ZM47.316,23.5a4.939,4.939,0,0,1,1.194,3.209,5.174,5.174,0,0,1-1.4,3.51,4.944,4.944,0,0,1-3.641,1.55H42.393l-1.414-.606a3.769,3.769,0,0,1-2.253-2.972,8.129,8.129,0,0,0,4.285-7.157V14.823c.242.016.483.025.724.025a10.527,10.527,0,0,0,1.185-.067v2.152a10.2,10.2,0,0,0,2.4,6.564ZM33.8,36.537a30.6,30.6,0,0,1-8.732-1.111V33.459l.239-.1.006,0,1.473-.641a5.424,5.424,0,0,0,3.151-3.88,8.1,8.1,0,0,0,2.264.323h2.691a8.1,8.1,0,0,0,2.272-.326,5.421,5.421,0,0,0,3.167,3.85l1.573.674h0l.117.05v1.859A30.66,30.66,0,0,1,33.8,36.537Zm8.224.446v2.166H25.064V37.136a32.282,32.282,0,0,0,8.194,1.057q.283,0,.566,0A32.305,32.305,0,0,0,42.02,36.983Zm2.9-23.867a9.174,9.174,0,0,1-6.606-1.671A.826.826,0,1,0,37.3,12.751a9.979,9.979,0,0,0,4.057,1.843v4.5a6.042,6.042,0,0,1-1.835,2.479,6.333,6.333,0,0,1-1.37.861A2.423,2.423,0,0,0,36,21.109H34.064a2.421,2.421,0,1,0,0,4.842H36a2.425,2.425,0,0,0,2.342-1.809,14.739,14.739,0,0,0,2.907-1.923,6.48,6.48,0,0,1-6.36,5.284H32.2a6.478,6.478,0,0,1-6.471-6.471V14.648a22.148,22.148,0,0,0,7.886-2.827,22.436,22.436,0,0,0,7.507-7.309,11.318,11.318,0,0,1,3.8,8.6ZM36.768,23.533A.77.77,0,0,1,36,24.3H34.063a.769.769,0,0,1,0-1.538H36a.77.77,0,0,1,.769.767Zm-14.5-10.557A11.328,11.328,0,0,1,39.8,3.5a20.8,20.8,0,0,1-7.033,6.9,20.537,20.537,0,0,1-7.818,2.692H22.271v-.116Zm-3.208,15.9a4.984,4.984,0,0,1,.681-5.349A10.55,10.55,0,0,0,22.271,16.8V14.743h1.8v6.289a8.13,8.13,0,0,0,4.289,7.159,3.771,3.771,0,0,1-2.24,3.006l-1.311.57h-1.2a4.984,4.984,0,0,1-4.552-2.892ZM47.815,41.714l-1.38,13.018H21.482L20.1,41.714a.826.826,0,0,1,.821-.913h26.07a.826.826,0,0,1,.821.913ZM53.08,54.732H48.1l1.361-12.843a2.478,2.478,0,0,0-2.464-2.739H43.672V34.113l5.539,2.374a6.508,6.508,0,0,1,3.869,5.945Zm-19.121-10.1A3.139,3.139,0,1,0,37.1,47.766,3.142,3.142,0,0,0,33.958,44.628Zm0,4.625a1.487,1.487,0,1,1,1.487-1.487A1.488,1.488,0,0,1,33.958,49.253Z" transform="translate(0 0)" fill="#231f20"/>
  </g>
</svg>
