<svg id="anuncio-face-insta-google" xmlns="http://www.w3.org/2000/svg" width="120" height="120" viewBox="0 0 120 120">
  <circle id="Elipse_11975" data-name="Elipse 11975" cx="60" cy="60" r="60" transform="translate(0 0)" fill="#fff"/>
  <circle id="Elipse_11977" data-name="Elipse 11977" cx="7" cy="7" r="7" transform="translate(48 33)" fill="#fcd64f"/>
  <rect id="Retângulo_2611" data-name="Retângulo 2611" width="14" height="13" rx="6" transform="translate(72 35)" fill="#fcd64f"/>
  <rect id="Retângulo_2612" data-name="Retângulo 2612" width="14" height="13" rx="6" transform="translate(71 63)" fill="#fcd64f"/>
  <rect id="Retângulo_2613" data-name="Retângulo 2613" width="11" height="14" rx="5.5" transform="translate(34 43)" fill="#fcd64f"/>
  <g id="_001-bullhorn" data-name="001-bullhorn" transform="translate(33.023 32.767)">
    <path id="Caminho_4641" data-name="Caminho 4641" d="M33.185,51.6H31.4V42.87a.891.891,0,0,0-1.782,0V51.6H6.455V33.782h7.413a.891.891,0,0,0,0-1.782h-8.3a.891.891,0,0,0-.891.891V51.6H2.891A.891.891,0,0,0,2,52.493v1.782A4.455,4.455,0,0,0,6.455,58.73H29.621a4.455,4.455,0,0,0,4.455-4.455V52.493A.891.891,0,0,0,33.185,51.6Zm-.891,2.673a2.673,2.673,0,0,1-2.673,2.673H27.839v-.891a.891.891,0,1,0-1.782,0v.891H10.019v-.891a.891.891,0,1,0-1.782,0v.891H6.455a2.673,2.673,0,0,1-2.673-2.673v-.891H32.294Z" transform="translate(-2 -4.379)" fill="#231f20"/>
    <path id="Caminho_4642" data-name="Caminho 4642" d="M53.455,7.782h1.782a.891.891,0,0,0,0-1.782H53.455a2.673,2.673,0,0,0-2.673,2.673v.891h-.891a.891.891,0,0,0,0,1.782h.891v2.673a.891.891,0,1,0,1.782,0V11.346h.891a.891.891,0,1,0,0-1.782h-.891V8.673A.891.891,0,0,1,53.455,7.782Z" transform="translate(-7.122 -1.545)" fill="#231f20"/>
    <path id="Caminho_4643" data-name="Caminho 4643" d="M57.365,2H46.673A2.673,2.673,0,0,0,44,4.673V6.455a.891.891,0,0,0,1.782,0V4.673a.891.891,0,0,1,.891-.891H57.365a.891.891,0,0,1,.891.891V15.365a.891.891,0,0,1-.891.891H46.673a.891.891,0,0,1-.891-.891V10.019a.891.891,0,1,0-1.782,0v5.346a2.673,2.673,0,0,0,2.673,2.673H57.365a2.673,2.673,0,0,0,2.673-2.673V4.673A2.673,2.673,0,0,0,57.365,2Z" transform="translate(-6.577 -1.109)" fill="#231f20"/>
    <path id="Caminho_4644" data-name="Caminho 4644" d="M49,41.564A3.564,3.564,0,1,0,52.564,38,3.564,3.564,0,0,0,49,41.564Zm5.346,0a1.782,1.782,0,1,1-1.782-1.782A1.782,1.782,0,0,1,54.346,41.564Z" transform="translate(-7.122 -5.033)" fill="#231f20"/>
    <path id="Caminho_4645" data-name="Caminho 4645" d="M57.365,33H46.673A2.673,2.673,0,0,0,44,35.673V46.365a2.673,2.673,0,0,0,2.673,2.673H57.365a2.673,2.673,0,0,0,2.673-2.673V44.583a.891.891,0,1,0-1.782,0v1.782a.891.891,0,0,1-.891.891H46.673a.891.891,0,0,1-.891-.891V35.673a.891.891,0,0,1,.891-.891H57.365a.891.891,0,0,1,.891.891v5.346a.891.891,0,0,0,1.782,0V35.673A2.673,2.673,0,0,0,57.365,33Z" transform="translate(-6.577 -4.488)" fill="#231f20"/>
    <path id="Caminho_4646" data-name="Caminho 4646" d="M24.419,12.995a.886.886,0,0,0,.873.036l5.346-2.673a.891.891,0,0,0,0-1.586L25.292,6.1A.891.891,0,0,0,24,6.891v5.346A.891.891,0,0,0,24.419,12.995Zm1.363-4.66,2.459,1.23-2.459,1.23Z" transform="translate(-4.398 -1.545)" fill="#231f20"/>
    <path id="Caminho_4647" data-name="Caminho 4647" d="M26.019,17.038A8.019,8.019,0,1,0,18,9.019,8.019,8.019,0,0,0,26.019,17.038Zm0-14.256a6.237,6.237,0,1,1-6.237,6.237A6.237,6.237,0,0,1,26.019,2.782Z" transform="translate(-3.744 -1)" fill="#231f20"/>
    <path id="Caminho_4648" data-name="Caminho 4648" d="M36.891,22.346a.891.891,0,0,0,.713-.356l2.673-3.564a.891.891,0,0,0-1.426-1.069L36.178,20.92a.891.891,0,0,0,.713,1.426Z" transform="translate(-5.706 -2.744)" fill="#231f20"/>
    <path id="Caminho_4649" data-name="Caminho 4649" d="M39.178,26.1a.891.891,0,0,0,1.247.178L43.99,23.6a.891.891,0,1,0-1.069-1.426l-3.564,2.673A.891.891,0,0,0,39.178,26.1Z" transform="translate(-6.032 -3.289)" fill="#231f20"/>
    <path id="Caminho_4650" data-name="Caminho 4650" d="M48.226,28.71A.891.891,0,0,0,47.156,28l-4.455.891a.9.9,0,1,0,.178,1.782h.178l4.455-.891a.891.891,0,0,0,.713-1.069Z" transform="translate(-6.348 -3.94)" fill="#231f20"/>
    <path id="Caminho_4651" data-name="Caminho 4651" d="M2.891,27.038H13.583a.891.891,0,0,0,.891-.891V11.891A.891.891,0,0,0,13.583,11H2.891A.891.891,0,0,0,2,11.891V26.147A.891.891,0,0,0,2.891,27.038Zm.891-14.256h8.91V25.256H3.782Z" transform="translate(-2 -2.09)" fill="#231f20"/>
    <path id="Caminho_4652" data-name="Caminho 4652" d="M10.673,15H8.891a.891.891,0,1,0,0,1.782h1.782a.891.891,0,1,0,0-1.782Z" transform="translate(-2.654 -2.526)" fill="#231f20"/>
    <path id="Caminho_4653" data-name="Caminho 4653" d="M10.455,19H6.891a.891.891,0,1,0,0,1.782h3.564a.891.891,0,1,0,0-1.782Z" transform="translate(-2.436 -2.962)" fill="#231f20"/>
    <path id="Caminho_4654" data-name="Caminho 4654" d="M10.455,23H6.891a.891.891,0,1,0,0,1.782h3.564a.891.891,0,1,0,0-1.782Z" transform="translate(-2.436 -3.398)" fill="#231f20"/>
    <path id="Caminho_4655" data-name="Caminho 4655" d="M33.168,28.079a.894.894,0,1,0-1.55.891l3.929,6.8L21.291,41.115h-.134L18.84,42.451l-1.541.891a1.779,1.779,0,0,1-2.432-.65l-1.782-3.083a1.782,1.782,0,0,1,.668-2.352l3.083-1.782,2.228,3.858a.894.894,0,0,0,1.55-.891l-2.3-3.974L29.5,25.246l.365.633a.894.894,0,0,0,1.55-.891l-.891-1.541a.9.9,0,0,0-1.345-.241L16.7,33.488l-3.8,2.192a3.564,3.564,0,0,0-1.639,4.036l-.891.508a2.671,2.671,0,0,0,1.337,4.99,2.727,2.727,0,0,0,1.337-.356l.891-.508a3.457,3.457,0,0,0,1.559.927,3.377,3.377,0,0,0,.936.125,3.511,3.511,0,0,0,1.782-.481l.775-.446,1.782,3.092A2.671,2.671,0,1,0,25.4,44.892l-1.622-2.825,13.365-5.016a.894.894,0,0,0,.463-1.274ZM12.122,43.306a.89.89,0,1,1-.891-1.541l.775-.446.891,1.541ZM23.848,45.8a.89.89,0,0,1-1.541.891L20.524,43.6,22,42.754h.071Z" transform="translate(-2.767 -3.398)" fill="#231f20"/>
  </g>
</svg>
