<svg id="Criação_de_artes_de_anúncios" data-name="Criação de artes de anúncios" xmlns="http://www.w3.org/2000/svg" width="120" height="120" viewBox="0 0 120 120">
  <circle id="Elipse_11975" data-name="Elipse 11975" cx="60" cy="60" r="60" transform="translate(0 0)" fill="#fff"/>
  <g id="_001-branding" data-name="001-branding" transform="translate(32.672 33.959)">
    <path id="União_2" data-name="União 2" d="M3.779,15.473V13.667a7.281,7.281,0,1,1,6.883.066v1.741Z" transform="translate(35.628 5.461)" fill="#fcd64f"/>
    <path id="Caminho_4716" data-name="Caminho 4716" d="M336.522,43.091a.808.808,0,0,0-1.551.453,6.667,6.667,0,0,1-.633,5.2,6.741,6.741,0,0,1-2.369,2.393l-.338.2a.808.808,0,0,0-.395.694v1.02h-1.888V49.773a2.257,2.257,0,0,0,1.487-2.117V45.892a2.256,2.256,0,0,0-2.253-2.254H328.5a2.256,2.256,0,0,0-2.253,2.254v1.764a2.255,2.255,0,0,0,1.487,2.117v3.283h-1.888v-1.02a.809.809,0,0,0-.395-.694l-.338-.2a6.733,6.733,0,0,1-2.369-2.393,6.688,6.688,0,0,1,10.466-8.119.808.808,0,1,0,1.125-1.159,8.3,8.3,0,1,0-10.105,13.025v.692a1.29,1.29,0,0,0-.726,1.159v3.693a1.291,1.291,0,0,0,1.289,1.29h1.2v1.135a1.406,1.406,0,0,0,1.4,1.4h2.285a1.407,1.407,0,0,0,1.4-1.4V59.328h1.2a1.291,1.291,0,0,0,1.29-1.29V54.346a1.291,1.291,0,0,0-.727-1.159v-.692a8.355,8.355,0,0,0,2.883-2.934,8.282,8.282,0,0,0,.787-6.469Zm-8.66,2.8a.639.639,0,0,1,.638-.639h.084a.639.639,0,0,1,.638.639v1.764a.639.639,0,0,1-.638.639H328.5a.639.639,0,0,1-.638-.639Zm1.611,14.361h-1.864v-.925h1.864Zm2.49-2.54h-6.844V54.671h6.844Zm0,0" transform="translate(-285.748 -33.174)" fill="#231f20"/>
    <path id="Caminho_4717" data-name="Caminho 4717" d="M390.714,3.454a.808.808,0,0,0,.808-.808V1.308a.808.808,0,1,0-1.615,0V2.647A.808.808,0,0,0,390.714,3.454Zm0,0" transform="translate(-347.921 -0.5)" fill="#231f20"/>
    <path id="Caminho_4718" data-name="Caminho 4718" d="M346.5,12.349a.808.808,0,1,0,1.474-.66l-.548-1.223a.807.807,0,1,0-1.474.66Zm0,0" transform="translate(-308.633 -8.967)" fill="#231f20"/>
    <path id="Caminho_4719" data-name="Caminho 4719" d="M309.821,37.958l1,.894a.808.808,0,0,0,1.077-1.2l-1-.894a.808.808,0,0,0-1.077,1.2Zm0,0" transform="translate(-276.219 -32.666)" fill="#231f20"/>
    <path id="Caminho_4720" data-name="Caminho 4720" d="M287.8,77.146l1.278.41a.808.808,0,0,0,.493-1.538l-1.278-.41a.807.807,0,1,0-.493,1.538Zm0,0" transform="translate(-256.305 -67.486)" fill="#231f20"/>
    <path id="Caminho_4721" data-name="Caminho 4721" d="M283.618,120.683a.786.786,0,0,0,.088-.005l1.335-.145a.807.807,0,1,0-.175-1.606l-1.335.145a.808.808,0,0,0,.086,1.611Zm0,0" transform="translate(-252.358 -106.171)" fill="#231f20"/>
    <path id="Caminho_4722" data-name="Caminho 4722" d="M297.446,157.4a.808.808,0,0,0,.814,1.4l1.159-.676a.808.808,0,1,0-.813-1.4Zm0,0" transform="translate(-265.06 -139.808)" fill="#231f20"/>
    <path id="Caminho_4723" data-name="Caminho 4723" d="M429.327,12.752a.807.807,0,0,0,1.067-.407l.548-1.223a.808.808,0,1,0-1.474-.66l-.547,1.223A.807.807,0,0,0,429.327,12.752Zm0,0" transform="translate(-382.671 -8.963)" fill="#231f20"/>
    <path id="Caminho_4724" data-name="Caminho 4724" d="M461.785,39.057a.806.806,0,0,0,.538-.206l1-.894a.808.808,0,0,0-1.077-1.2l-1,.894a.808.808,0,0,0,.539,1.41Zm0,0" transform="translate(-411.339 -32.666)" fill="#231f20"/>
    <path id="Caminho_4725" data-name="Caminho 4725" d="M480.741,77.033a.807.807,0,0,0,1.016.522l1.278-.41a.808.808,0,1,0-.493-1.538l-1.278.41A.808.808,0,0,0,480.741,77.033Zm0,0" transform="translate(-428.94 -67.486)" fill="#231f20"/>
    <path id="Caminho_4726" data-name="Caminho 4726" d="M486.831,119.072l-1.335-.145a.808.808,0,1,0-.175,1.606l1.335.145c.03,0,.059,0,.088,0a.808.808,0,0,0,.086-1.611Zm0,0" transform="translate(-432.419 -106.17)" fill="#231f20"/>
    <path id="Caminho_4727" data-name="Caminho 4727" d="M474.368,157.406l-1.159-.676a.808.808,0,1,0-.813,1.4l1.159.676a.808.808,0,1,0,.813-1.4Zm0,0" transform="translate(-421.17 -139.81)" fill="#231f20"/>
    <path id="Caminho_4728" data-name="Caminho 4728" d="M76.874,160.041h8.191a.808.808,0,0,0,0-1.615H76.874a.808.808,0,1,0,0,1.615Zm0,0" transform="translate(-67.876 -141.421)" fill="#231f20"/>
    <path id="Caminho_4729" data-name="Caminho 4729" d="M41.831,348.763H57.568a.808.808,0,0,0,0-1.615H41.831a.808.808,0,1,0,0,1.615Zm0,0" transform="translate(-36.606 -309.821)" fill="#231f20"/>
    <path id="Subtração_5" data-name="Subtração 5" d="M12.055,12.251H6a6.007,6.007,0,0,1-6-6V6A6.007,6.007,0,0,1,6,0h6.054A5.957,5.957,0,0,1,17.2,2.911,13,13,0,0,0,14.25,5.06,10.726,10.726,0,0,0,11.8,8.123a9.486,9.486,0,0,0,2.45,3.263c.115.1.232.2.348.3A5.945,5.945,0,0,1,12.055,12.251Z" transform="translate(4.201 22.505)" fill="#fcd64f"/>
    <path id="Caminho_4730" data-name="Caminho 4730" d="M214.186,242.469a4.786,4.786,0,1,0-4.786,4.79A4.793,4.793,0,0,0,214.186,242.469Zm-4.787-3.174a3.177,3.177,0,0,1,3.167,3.008,3.22,3.22,0,0,1-.393.026,3.176,3.176,0,0,1-3.166-3.008,3.1,3.1,0,0,1,.393-.026Zm-3.171,3.174a3.172,3.172,0,0,1,1.228-2.506,4.794,4.794,0,0,0,4.716,3.98h.034a3.17,3.17,0,0,1-5.978-1.474Zm0,0" transform="translate(-182.581 -212.14)" fill="#231f20"/>
    <path id="Caminho_4731" data-name="Caminho 4731" d="M46.364,138.984l-4.089-2.229a4.888,4.888,0,0,0-2.041-.52H26.188V133.67c.209.01.42.017.631.017a13.5,13.5,0,0,0,11.68-6.768,1.38,1.38,0,0,0,0-1.369,13.5,13.5,0,0,0-11.68-6.767c-.211,0-.421.007-.631.016V108.764a1.348,1.348,0,0,0-1.346-1.346H10.014a.808.808,0,1,0,0,1.615H24.573v9.939a13.39,13.39,0,0,0-1.7.406v-.706a1.347,1.347,0,0,0-1.346-1.346H4.664a1.347,1.347,0,0,0-1.346,1.346v11.25a1.348,1.348,0,0,0,1.346,1.346H19.136a13.513,13.513,0,0,0,5.437,2.227v2.739H14.86a1.688,1.688,0,0,0-1.45.826H5.225a.808.808,0,0,0,0,1.615h7.946v2.214H5.225a.808.808,0,0,0,0,1.615h7.959a1.69,1.69,0,0,0,1.676,1.489h9.712v3.1H1.615V109.034H6.138a.808.808,0,1,0,0-1.615H1.346A1.348,1.348,0,0,0,0,108.764v38.6a1.347,1.347,0,0,0,1.346,1.346h23.5a1.348,1.348,0,0,0,1.346-1.346v-3.37H40.234a4.889,4.889,0,0,0,2.041-.52l4.089-2.229a1.234,1.234,0,0,0,0-2.261Zm-28.082,3.4H14.86a.076.076,0,0,1-.074-.071v-4.387a.075.075,0,0,1,.074-.071h3.421ZM4.933,129.654V118.942H21.255v1.05a13.5,13.5,0,0,0-6.115,5.557,1.379,1.379,0,0,0,0,1.37,13.41,13.41,0,0,0,2.079,2.735Zm11.677-3.42a11.846,11.846,0,0,1,20.418,0,11.846,11.846,0,0,1-20.418,0Zm22.461,13.073H35.75a.808.808,0,1,0,0,1.615h3.321v1.457H19.9v-1.457H31.981a.808.808,0,1,0,0-1.615H19.9v-1.457H39.071Zm3.35,2.248-.919.5a3.22,3.22,0,0,1-.815.268V137.9a3.231,3.231,0,0,1,.815.268l.919.5Zm1.615-.88v-1.119l1.027.559Zm0,0" transform="translate(0 -95.905)" fill="#231f20"/>
  </g>
</svg>
