<svg id="sites-otimizados" xmlns="http://www.w3.org/2000/svg" width="120" height="120" viewBox="0 0 120 120">
  <circle id="Elipse_11975" data-name="Elipse 11975" cx="60" cy="60" r="60" transform="translate(0 0)" fill="#fff"/>
  <ellipse id="Elipse_11978" data-name="Elipse 11978" cx="7" cy="7.5" rx="7" ry="7.5" transform="translate(51 47)" fill="#fcd64f"/>
  <ellipse id="Elipse_11979" data-name="Elipse 11979" cx="6" cy="5.5" rx="6" ry="5.5" transform="translate(73 63)" fill="#fcd64f"/>
  <g id="_001-responsive-design" data-name="001-responsive-design" transform="translate(31.112 34.327)">
    <path id="Caminho_4656" data-name="Caminho 4656" d="M54.914,46.7H51.659v-11a4.578,4.578,0,0,0-4.573-4.573H7.686A4.578,4.578,0,0,0,3.113,35.7V63.622a4.556,4.556,0,0,0,.992,2.824H1.472A1.477,1.477,0,0,0,0,67.925v2.158a3.753,3.753,0,0,0,3.735,3.763h21.1a.851.851,0,1,0,0-1.7H3.734A2.049,2.049,0,0,1,1.7,70.083V68.148H37.543v4H28.8a.851.851,0,1,0,0,1.7h8.739v5.137a3.169,3.169,0,0,0,3.165,3.165H54.914a3.169,3.169,0,0,0,3.165-3.165V49.87A3.169,3.169,0,0,0,54.914,46.7ZM37.543,66.446H7.171a2.9,2.9,0,0,1-2.357-2.824V35.7a2.874,2.874,0,0,1,2.871-2.871h39.4A2.874,2.874,0,0,1,49.958,35.7v11H48.315V35.969A1.52,1.52,0,0,0,46.8,34.451H7.976a1.52,1.52,0,0,0-1.519,1.519V63.316a1.52,1.52,0,0,0,1.519,1.519H37.543v1.612Zm9.071-30.294v2.259H12.5V36.152Zm-35.816,0v2.259H8.158V36.152ZM37.543,49.87V63.133H8.158V40.112H46.614V46.7H40.708a3.169,3.169,0,0,0-3.165,3.165Zm1.7,3.34h1.711v1.7H39.244ZM56.378,78.983a1.465,1.465,0,0,1-1.464,1.464H40.708a1.465,1.465,0,0,1-1.464-1.464V76.545H56.378Zm0-4.14H39.244V56.615H56.378Zm0-19.93H42.656v-1.7H56.378Zm0-3.405H39.244V49.87a1.465,1.465,0,0,1,1.464-1.464H54.914a1.465,1.465,0,0,1,1.464,1.464v1.639Z" transform="translate(0 -31.132)" fill="#231f20"/>
    <path id="Caminho_4657" data-name="Caminho 4657" d="M406.861,441.295h1.809a.851.851,0,0,0,0-1.7h-1.809a.851.851,0,1,0,0,1.7Z" transform="translate(-359.954 -393.259)" fill="#231f20"/>
    <path id="Caminho_4659" data-name="Caminho 4659" d="M174.172,141.552a7.965,7.965,0,1,0,7.965,7.965A7.974,7.974,0,0,0,174.172,141.552Zm0,14.229a6.264,6.264,0,1,1,6.264-6.264A6.271,6.271,0,0,1,174.172,155.781Z" transform="translate(-147.353 -129.026)" fill="#231f20"/>
    <path id="Caminho_4661" data-name="Caminho 4661" d="M366.439,287.127a7.062,7.062,0,0,0,6.627-4.656.851.851,0,0,0-1.6-.577,5.341,5.341,0,1,1,.066-3.425.851.851,0,1,0,1.622-.514,7.043,7.043,0,1,0-6.714,9.171Z" transform="translate(-318.628 -245.601)" fill="#231f20"/>
  </g>
</svg>
