<svg id="Banco_de_chamadas_recebidas" data-name="Banco de chamadas recebidas" xmlns="http://www.w3.org/2000/svg" width="119" height="120" viewBox="0 0 119 120">
  <ellipse id="Elipse_11975" data-name="Elipse 11975" cx="59.5" cy="60" rx="59.5" ry="60" transform="translate(0 0)" fill="#fff"/>
  <g id="Grupo_4539" data-name="Grupo 4539" transform="translate(31.41 39.008)">
    <g id="_001-list" data-name="001-list" transform="translate(0)">
      <rect id="Ret창ngulo_2624" data-name="Ret창ngulo 2624" width="33.287" height="5.721" rx="2.861" transform="translate(15.176 0.856)" fill="#fcd64f"/>
      <rect id="Ret창ngulo_2623" data-name="Ret창ngulo 2623" width="33.287" height="5.721" rx="2.861" transform="translate(15.176 26.602)" fill="#fcd64f"/>
      <path id="Caminho_4689" data-name="Caminho 4689" d="M263.335-.168H229.385a1.1,1.1,0,0,0-1.1,1.1V6.588a1.1,1.1,0,0,0,1.1,1.1h33.949a1.1,1.1,0,0,0,1.1-1.1V.933a1.1,1.1,0,0,0-1.1-1.1Zm-1.1,5.656H230.487V2.034h31.747Zm0,0" transform="translate(-214.672 0.168)" fill="#231f20"/>
      <path id="Caminho_4690" data-name="Caminho 4690" d="M263.335,99.082H229.385a1.1,1.1,0,0,0-1.1,1.1v5.655a1.1,1.1,0,0,0,1.1,1.1h22.007a1.1,1.1,0,0,0,0-2.2H230.486v-3.454h31.747v3.454h-2.091a1.1,1.1,0,0,0,0,2.2h3.192a1.1,1.1,0,0,0,1.1-1.1v-5.655a1.1,1.1,0,0,0-1.1-1.1Zm0,0" transform="translate(-214.672 -90.367)" fill="#231f20"/>
      <path id="Caminho_4691" data-name="Caminho 4691" d="M263.335,219.207H229.385a1.1,1.1,0,0,0-1.1,1.1v5.655a1.1,1.1,0,0,0,1.1,1.1h33.949a1.1,1.1,0,0,0,1.1-1.1v-5.655A1.1,1.1,0,0,0,263.335,219.207Zm-1.1,5.656H230.487v-3.454h31.747Zm0,0" transform="translate(-214.672 -194.223)" fill="#231f20"/>
      <path id="Caminho_4692" data-name="Caminho 4692" d="M263.335,318.457H229.385a1.1,1.1,0,0,0-1.1,1.1v5.656a1.1,1.1,0,0,0,1.1,1.1h33.949a1.1,1.1,0,0,0,1.1-1.1v-5.656A1.1,1.1,0,0,0,263.335,318.457Zm-1.1,5.655H230.487v-3.454h31.747Zm0,0" transform="translate(-214.672 -284.759)" fill="#231f20"/>
      <path id="Caminho_4698" data-name="Caminho 4698" d="M528.518,165.343a1.1,1.1,0,0,0,1.334-1.752l-.034-.026a1.1,1.1,0,0,0-1.334,1.752Zm0,0" transform="translate(-488.116 -148.984)" fill="#231f20"/>
      <g id="_001-phone-call" data-name="001-phone-call" transform="translate(0 3.929)">
        <g id="Grupo_4539-2" data-name="Grupo 4539" transform="translate(0 0)">
          <path id="Caminho_4700" data-name="Caminho 4700" d="M9.995,7.141,8.637,5.783a.9.9,0,0,0-1.5.339A.924.924,0,0,1,6.066,6.7,4.187,4.187,0,0,1,3.544,4.183a.879.879,0,0,1,.582-1.067.9.9,0,0,0,.339-1.5L3.108.255A.969.969,0,0,0,1.8.255l-.921.921c-.921.97.1,3.54,2.376,5.82s4.85,3.346,5.82,2.376l.921-.921A.969.969,0,0,0,9.995,7.141Z" transform="translate(-0.539 0)" fill="#231f20"/>
        </g>
      </g>
      <g id="_001-phone-call-2" data-name="001-phone-call" transform="translate(0 28.894)">
        <g id="Grupo_4539-3" data-name="Grupo 4539" transform="translate(0 0)">
          <path id="Caminho_4700-2" data-name="Caminho 4700" d="M9.995,7.141,8.637,5.783a.9.9,0,0,0-1.5.339A.924.924,0,0,1,6.066,6.7,4.187,4.187,0,0,1,3.544,4.183a.879.879,0,0,1,.582-1.067.9.9,0,0,0,.339-1.5L3.108.255A.969.969,0,0,0,1.8.255l-.921.921c-.921.97.1,3.54,2.376,5.82s4.85,3.346,5.82,2.376l.921-.921A.969.969,0,0,0,9.995,7.141Z" transform="translate(-0.539 0)" fill="#231f20"/>
        </g>
      </g>
    </g>
  </g>
</svg>
