<svg id="Integração_com_CRM_" data-name="Integração com CRM*" xmlns="http://www.w3.org/2000/svg" width="120" height="120" viewBox="0 0 120 120">
  <circle id="Elipse_11975" data-name="Elipse 11975" cx="60" cy="60" r="60" transform="translate(0 0)" fill="#fff"/>
  <g id="Grupo_4538" data-name="Grupo 4538" transform="translate(35.427 27.306)">
    <path id="União_1" data-name="União 1" d="M11.378,21.975c-1.117-1.121-2.717-2.967-3.977-4.408A8.843,8.843,0,0,1,8.842,0H22.885a8.842,8.842,0,0,1,0,17.684h-9.1V22.3s-.361.04-.811.04A2.566,2.566,0,0,1,11.378,21.975Z" transform="translate(21.065 0.52)" fill="#fcd64f"/>
    <g id="_001-crm" data-name="001-crm">
      <path id="Caminho_4662" data-name="Caminho 4662" d="M32.439,8.72a1.721,1.721,0,0,1,1.72,1.72h1.72a3.439,3.439,0,1,0-6.879,0v1.72a3.439,3.439,0,1,0,6.879,0h-1.72a1.72,1.72,0,1,1-3.439,0v-1.72A1.721,1.721,0,0,1,32.439,8.72Z" transform="translate(-4.924 -1.841)" fill="#231f20"/>
      <path id="Caminho_4663" data-name="Caminho 4663" d="M43.3,7H39v8.6h1.72V12.159H43.3a.861.861,0,0,1,.86.86V15.6h1.72v-2.58a2.563,2.563,0,0,0-.671-1.72A2.569,2.569,0,0,0,43.3,7Zm-2.58,3.439V8.72H43.3a.86.86,0,1,1,0,1.72Z" transform="translate(-6.325 -1.841)" fill="#231f20"/>
      <path id="Caminho_4664" data-name="Caminho 4664" d="M53.539,12.159h-.48L51.34,7H49v8.6h1.72v-5.02l1.1,3.3h2.96l1.1-3.3V15.6H57.6V7h-2.34Z" transform="translate(-7.726 -1.841)" fill="#231f20"/>
      <path id="Caminho_4665" data-name="Caminho 4665" d="M5,21H6.72v1.72H5Z" transform="translate(-1.561 -3.803)" fill="#231f20"/>
      <path id="Caminho_4666" data-name="Caminho 4666" d="M9,21h1.72v1.72H9Z" transform="translate(-2.121 -3.803)" fill="#231f20"/>
      <path id="Caminho_4667" data-name="Caminho 4667" d="M13,21h1.72v1.72H13Z" transform="translate(-2.682 -3.803)" fill="#231f20"/>
      <path id="Caminho_4668" data-name="Caminho 4668" d="M49.337,31H35.58A2.583,2.583,0,0,0,33,33.58V35.3a2.583,2.583,0,0,0,2.58,2.58V39.6A2.583,2.583,0,0,0,33,42.178V43.9a2.583,2.583,0,0,0,2.58,2.58V48.2A2.583,2.583,0,0,0,33,50.777V52.5a2.583,2.583,0,0,0,2.58,2.58H49.337a2.583,2.583,0,0,0,2.58-2.58v-1.72a2.583,2.583,0,0,0-2.58-2.58v-1.72a2.583,2.583,0,0,0,2.58-2.58v-1.72a2.583,2.583,0,0,0-2.58-2.58v-1.72a2.583,2.583,0,0,0,2.58-2.58V33.58A2.583,2.583,0,0,0,49.337,31Zm.86,19.777V52.5a.861.861,0,0,1-.86.86H35.58a.861.861,0,0,1-.86-.86v-1.72a.861.861,0,0,1,.86-.86H49.337A.861.861,0,0,1,50.2,50.777Zm-2.58-2.58H37.3v-1.72H47.618Zm2.58-6.019V43.9a.861.861,0,0,1-.86.86H35.58a.861.861,0,0,1-.86-.86v-1.72a.861.861,0,0,1,.86-.86H49.337A.861.861,0,0,1,50.2,42.178Zm-2.58-2.58H37.3v-1.72H47.618Zm2.58-4.3a.861.861,0,0,1-.86.86H35.58a.861.861,0,0,1-.86-.86V33.58a.861.861,0,0,1,.86-.86H49.337a.861.861,0,0,1,.86.86Z" transform="translate(-5.484 -5.204)" fill="#231f20"/>
      <path id="Caminho_4669" data-name="Caminho 4669" d="M50.012,1H25.936a4.3,4.3,0,0,0-4.3,4.3v9.459H3.58A2.583,2.583,0,0,0,1,17.337V51.732a2.583,2.583,0,0,0,2.58,2.58H48.293a2.583,2.583,0,0,0,2.58-2.58V19.83a4.307,4.307,0,0,0,3.439-4.212V5.3a4.3,4.3,0,0,0-4.3-4.3ZM3.58,16.478H21.724a4.307,4.307,0,0,0,4.212,3.439h3.037l1.433,1.72H2.72v-4.3A.861.861,0,0,1,3.58,16.478ZM48.293,52.592H3.58a.861.861,0,0,1-.86-.86V23.356H31.839l.648.778a2.608,2.608,0,0,0,4.458-.778H49.152V51.732a.861.861,0,0,1-.86.86ZM37.114,21.637v-1.72H49.152v1.72Zm15.478-6.019a2.583,2.583,0,0,1-2.58,2.58H35.395V22.46a.9.9,0,0,1-1.586.574L29.778,18.2H25.936a2.583,2.583,0,0,1-2.58-2.58V5.3a2.583,2.583,0,0,1,2.58-2.58H50.012a2.583,2.583,0,0,1,2.58,2.58Z" transform="translate(-1 -1)" fill="#231f20"/>
      <path id="Caminho_4670" data-name="Caminho 4670" d="M16.459,47.917A9.459,9.459,0,1,0,7,38.459,9.47,9.47,0,0,0,16.459,47.917Zm0-1.72a7.694,7.694,0,0,1-4.825-1.7l5.181-5.181h7.332A7.748,7.748,0,0,1,16.459,46.2ZM22.5,33.634A7.7,7.7,0,0,1,24.147,37.6H18.534Zm-1.216-1.216-4.825,4.825-4.825-4.825a7.7,7.7,0,0,1,9.649,0ZM10.418,33.634l4.825,4.825-4.825,4.825a7.7,7.7,0,0,1,0-9.649Z" transform="translate(-1.841 -4.924)" fill="#231f20"/>
      <path id="Caminho_4671" data-name="Caminho 4671" d="M5,53H6.72v1.72H5Z" transform="translate(-1.561 -8.287)" fill="#231f20"/>
      <path id="Caminho_4672" data-name="Caminho 4672" d="M9,53H27.917v1.72H9Z" transform="translate(-2.121 -8.287)" fill="#231f20"/>
      <path id="Caminho_4673" data-name="Caminho 4673" d="M5,57h5.159v1.72H5Z" transform="translate(-1.561 -8.848)" fill="#231f20"/>
      <path id="Caminho_4674" data-name="Caminho 4674" d="M13,57H28.478v1.72H13Z" transform="translate(-2.682 -8.848)" fill="#231f20"/>
    </g>
  </g>
</svg>
