<svg id="Relatórios_individuais" data-name="Relatórios individuais" xmlns="http://www.w3.org/2000/svg" width="120" height="120" viewBox="0 0 120 120">
  <circle id="Elipse_11975" data-name="Elipse 11975" cx="60" cy="60" r="60" transform="translate(0 0)" fill="#fff"/>
  <path id="Subtração_6" data-name="Subtração 6" d="M21,30H6a6.007,6.007,0,0,1-6-6V6A6.007,6.007,0,0,1,6,0H20.314V6.89H27V24A6.007,6.007,0,0,1,21,30Z" transform="translate(51 31)" fill="#fcd64f"/>
  <g id="computer-files-graph-digital-data_analytics" data-name="computer-files-graph-digital-data analytics" transform="translate(32.619 30.309)">
    <path id="Caminho_4745" data-name="Caminho 4745" d="M8.8,19.8h2.705V18H7.9a.9.9,0,0,0-.9.9v3.607H8.8Z" transform="translate(-4.295 -3.571)" fill="#231f20"/>
    <path id="Caminho_4746" data-name="Caminho 4746" d="M28,6h3.607V7.8H28Z" transform="translate(-6.356 -2.393)" fill="#231f20"/>
    <path id="Caminho_4747" data-name="Caminho 4747" d="M28,10h5.411v1.8H28Z" transform="translate(-6.356 -2.785)" fill="#231f20"/>
    <path id="Caminho_4748" data-name="Caminho 4748" d="M55.4,7.411H53.6v-1.8a.9.9,0,0,0-.9-.9H46.422l-2.092-2.4A.9.9,0,0,0,43.644,2H22.938a.9.9,0,0,0-.9.9V13.724H6.705A2.714,2.714,0,0,0,4,16.429V45.288a2.714,2.714,0,0,0,2.705,2.705H25.644V50.7H20.233a.9.9,0,0,0-.9.9v3.607a.9.9,0,0,0,.9.9H38.27a.9.9,0,0,0,.9-.9V51.6a.9.9,0,0,0-.9-.9H32.859V47.993H51.8A2.714,2.714,0,0,0,54.5,45.288V39.877h.9a.9.9,0,0,0,.9-.9V8.313A.9.9,0,0,0,55.4,7.411Zm-3.607-.9V35.368H26.546v-.9H49.993a.9.9,0,0,0,.9-.9V10.144a.882.882,0,0,0-.225-.586l-2.66-3.048Zm-8.116-2.2,4.3,4.906h-4.3ZM23.84,3.8H41.877v6.313a.9.9,0,0,0,.9.9h6.313V32.662H23.84ZM37.368,52.5v1.8H21.135V52.5Zm-9.92-1.8V47.993h3.607V50.7ZM52.7,45.288a.9.9,0,0,1-.9.9H6.705a.9.9,0,0,1-.9-.9v-1.8H52.7Zm0-3.607H5.8V16.429a.9.9,0,0,1,.9-.9H22.037V33.564a.9.9,0,0,0,.9.9h1.8v1.8a.9.9,0,0,0,.9.9h1.8v1.8a.9.9,0,0,0,.9.9H52.7Zm1.8-3.607H29.251v-.9H52.7a.9.9,0,0,0,.9-.9V9.215h.9Z" transform="translate(-4 -2)" fill="#231f20"/>
    <path id="Caminho_4749" data-name="Caminho 4749" d="M47.84,30.233V14.9a.9.9,0,0,0-.9-.9H43.331a.9.9,0,0,0-.9.9V30.233h-.9V18.509a.9.9,0,0,0-.9-.9H37.018a.9.9,0,0,0-.9.9V30.233h-.9V24.822a.9.9,0,0,0-.9-.9H30.705a.9.9,0,0,0-.9.9v5.411H28v1.8H49.644v-1.8Zm-14.429,0h-1.8V25.724h1.8Zm6.313,0h-1.8V19.411h1.8Zm6.313,0h-1.8V15.8h1.8Z" transform="translate(-6.356 -3.178)" fill="#231f20"/>
    <path id="Caminho_4750" data-name="Caminho 4750" d="M15.313,22a6.313,6.313,0,1,0,6.313,6.313A6.313,6.313,0,0,0,15.313,22Zm.9,1.894A4.479,4.479,0,0,1,18.3,24.956l-2.081,2.081Zm-1.8,0v4.419H10.8a4.517,4.517,0,0,1,3.607-4.419Zm.9,8.928a4.509,4.509,0,0,1-4.127-2.705h4.127a.9.9,0,0,0,.637-.264l3.438-3.433a4.455,4.455,0,0,1,.434,1.894,4.515,4.515,0,0,1-4.509,4.509Z" transform="translate(-4.491 -3.963)" fill="#231f20"/>
    <path id="Caminho_4751" data-name="Caminho 4751" d="M10,38h2.705v1.8H10Z" transform="translate(-4.589 -5.534)" fill="#231f20"/>
    <path id="Caminho_4752" data-name="Caminho 4752" d="M15,38h6.313v1.8H15Z" transform="translate(-5.08 -5.534)" fill="#231f20"/>
    <path id="Caminho_4753" data-name="Caminho 4753" d="M10,42h4.509v1.8H10Z" transform="translate(-4.589 -5.927)" fill="#231f20"/>
    <path id="Caminho_4754" data-name="Caminho 4754" d="M17,42h4.509v1.8H17Z" transform="translate(-5.276 -5.927)" fill="#231f20"/>
  </g>
</svg>
