<svg xmlns="http://www.w3.org/2000/svg" width="185.605" height="49.2" viewBox="0 0 185.605 49.2">
  <g id="Grupo_3518" data-name="Grupo 3518" transform="translate(-140 -48)">
    <path id="Caminho_3855" data-name="Caminho 3855" d="M11.5,4.2c0-1.7.4-2.8,1.3-3.4A5.938,5.938,0,0,1,15.9,0l1.6.1c2.6,0,4.4.4,5.5,1.3,1,.9,1.6,2.5,1.6,4.9V25.4c0,4.4-1.3,7.8-3.8,10s-6.3,3.3-11.2,3.3C3.2,38.6,0,36.4,0,32l.1-1.6A2.753,2.753,0,0,1,3.2,28a3.808,3.808,0,0,1,1.3.1,4.954,4.954,0,0,0,1.5.1,5.329,5.329,0,0,0,4.1-1.4,5.987,5.987,0,0,0,1.3-4.3V4.2Z" transform="translate(140 48)" fill="#fcd64f"/>
    <path id="Caminho_3856" data-name="Caminho 3856" d="M62.2,33.5c-3.5,3.4-8.3,5.1-14.3,5.1-5.9,0-10.6-1.7-14.1-5.2-3.6-3.4-5.5-8.1-5.5-14.1a23.179,23.179,0,0,1,1.4-8,16.606,16.606,0,0,1,4-6.2C37.4,1.7,42.1,0,47.9,0a22.587,22.587,0,0,1,7.9,1.3,18.558,18.558,0,0,1,6.3,3.9,17.447,17.447,0,0,1,4,6.2,22.2,22.2,0,0,1,1.4,7.9c0,6.1-1.8,10.8-5.3,14.2M43.1,26.2A5.843,5.843,0,0,0,48,28.7a5.325,5.325,0,0,0,4.8-2.5,12.468,12.468,0,0,0,1.7-7,12.108,12.108,0,0,0-1.7-6.9,5.636,5.636,0,0,0-4.9-2.4A5.757,5.757,0,0,0,43,12.3a12.108,12.108,0,0,0-1.7,6.9c0,3.1.6,5.4,1.8,7" transform="translate(140 48)" fill="#fcd64f"/>
    <g id="Grupo_3444" data-name="Grupo 3444" transform="translate(140 48)">
      <path id="Caminho_3848" data-name="Caminho 3848" d="M106.7,6.4a8.42,8.42,0,0,0-2.5-2.5A22.988,22.988,0,0,0,90.6,0c-6,0-10.8,1.6-14.2,4.7s-5.2,7.5-5.2,13.2a18.577,18.577,0,0,0,3.2,11.2c.1.2.2.3.3.5.1.1.1.2.2.3h0a7.637,7.637,0,0,0,.9.9c2,1.8,5.2,3,9.5,3.4l9.8,1v.5c0,2.5-2.1,3.8-6.3,4a4.954,4.954,0,0,0,1.7,9.5c5.3-.1,9.5-1.3,12.4-3.5,3.1-2.3,4.6-5.7,4.6-10.2V9.5a6.713,6.713,0,0,0-.8-3.1M85.7,12a6.943,6.943,0,0,1,5.5-2.1,12.482,12.482,0,0,1,2.1.2c1.3.3,1.9,1.6,1.9,3.9v7.5c0,2.4-.8,3.8-2.3,4.1a7.652,7.652,0,0,1-2.5.3,5.738,5.738,0,0,1-4.8-2.1,9.638,9.638,0,0,1-1.7-6.1A8.468,8.468,0,0,1,85.7,12" fill="#fcd64f"/>
    </g>
    <path id="Caminho_3857" data-name="Caminho 3857" d="M146.6,6.4a8.42,8.42,0,0,0-2.5-2.5A22.988,22.988,0,0,0,130.5,0c-6,0-10.8,1.6-14.2,4.7s-5.2,7.5-5.2,13.2a18.577,18.577,0,0,0,3.2,11.2c.1.2.2.3.3.5.1.1.1.2.2.3h0a7.637,7.637,0,0,0,.9.9c2,1.8,5.2,3,9.5,3.4l9.8,1v.5c0,2.5-2.1,3.8-6.3,4a4.954,4.954,0,0,0,1.7,9.5c5.3-.1,9.5-1.3,12.4-3.5,3.1-2.3,4.6-5.7,4.6-10.2V9.5a6.713,6.713,0,0,0-.8-3.1m-21,5.6a6.943,6.943,0,0,1,5.5-2.1,12.482,12.482,0,0,1,2.1.2c1.3.3,1.9,1.6,1.9,3.9v7.5c0,2.4-.8,3.8-2.3,4.1a7.652,7.652,0,0,1-2.5.3,5.738,5.738,0,0,1-4.8-2.1,9.638,9.638,0,0,1-1.7-6.1,8.468,8.468,0,0,1,1.8-5.7" transform="translate(140 48)" fill="#fcd64f"/>
    <path id="Caminho_3858" data-name="Caminho 3858" d="M181.1,3.5C178.2,1.3,174,.2,168.7,0A4.96,4.96,0,0,0,164,5a5.109,5.109,0,0,0,3,4.6c4.2.2,6.3,1.5,6.3,4v.5l-9.8,1c-4.3.4-7.4,1.6-9.5,3.4a10.232,10.232,0,0,0-3.1,7.9,10.384,10.384,0,0,0,4.5,9.1c3,2.1,7.3,3.1,12.8,3.1,5.9,0,10.5-1,13.7-2.9a7.529,7.529,0,0,0,2.8-2.4,4.859,4.859,0,0,0,.9-3V13.7q.15-6.75-4.5-10.2m-7.6,24.9a6.361,6.361,0,0,1-2.1.7,15.262,15.262,0,0,1-3,.3c-3.4,0-5.1-1.1-5.1-3.4,0-1.9,1.6-2.9,4.8-3.1l5.4-.4v5.9Z" transform="translate(140 48)" fill="#fcd64f"/>
  </g>
</svg>
