<svg data-name="Integração com CRM*" xmlns="http://www.w3.org/2000/svg" width="120" height="120"><circle data-name="Elipse 11975" cx="60" cy="60" r="60" fill="#fff"/><g data-name="Grupo 4538"><path data-name="União 1" d="M67.87 49.801c-1.117-1.121-2.717-2.967-3.977-4.408a8.843 8.843 0 011.441-17.567h14.043a8.842 8.842 0 010 17.684h-9.1v4.616s-.361.04-.811.04a2.566 2.566 0 01-1.596-.365z" fill="#fcd64f"/><g data-name="001-crm" fill="#231f20"><path data-name="Caminho 4662" d="M62.942 34.185a1.721 1.721 0 011.72 1.72h1.72a3.44 3.44 0 10-6.879 0v1.72a3.44 3.44 0 106.879 0h-1.72a1.72 1.72 0 11-3.439 0v-1.72a1.721 1.721 0 011.719-1.72z"/><path data-name="Caminho 4663" d="M72.402 32.465h-4.3v8.6h1.72v-3.441h2.58a.861.861 0 01.86.86v2.581h1.72v-2.58a2.563 2.563 0 00-.671-1.72 2.569 2.569 0 00-1.909-4.3zm-2.58 3.439v-1.719h2.58a.86.86 0 110 1.72z"/><path data-name="Caminho 4664" d="M81.24 37.624h-.48l-1.719-5.159h-2.34v8.6h1.72v-5.02l1.1 3.3h2.96l1.1-3.3v5.02h1.72v-8.6h-2.34z"/><path data-name="Caminho 4665" d="M38.866 44.503h1.72v1.72h-1.72z"/><path data-name="Caminho 4666" d="M42.306 44.503h1.72v1.72h-1.72z"/><path data-name="Caminho 4667" d="M45.745 44.503h1.72v1.72h-1.72z"/><path data-name="Caminho 4668" d="M79.28 53.102H65.523a2.583 2.583 0 00-2.58 2.58v1.72a2.583 2.583 0 002.58 2.58v1.72a2.583 2.583 0 00-2.58 2.578v1.722a2.583 2.583 0 002.58 2.58v1.72a2.583 2.583 0 00-2.58 2.577v1.723a2.583 2.583 0 002.58 2.58H79.28a2.583 2.583 0 002.58-2.58v-1.72a2.583 2.583 0 00-2.58-2.58v-1.72a2.583 2.583 0 002.58-2.58v-1.72a2.583 2.583 0 00-2.58-2.58v-1.72a2.583 2.583 0 002.58-2.58v-1.72a2.583 2.583 0 00-2.58-2.58zm.86 19.777v1.723a.861.861 0 01-.86.86H65.523a.861.861 0 01-.86-.86v-1.72a.861.861 0 01.86-.86H79.28a.861.861 0 01.863.857zm-2.58-2.58H67.243v-1.72h10.318zm2.58-6.019v1.722a.861.861 0 01-.86.86H65.523a.861.861 0 01-.86-.86v-1.72a.861.861 0 01.86-.86H79.28a.861.861 0 01.863.858zm-2.58-2.58H67.243v-1.72h10.318zm2.58-4.3a.861.861 0 01-.86.86H65.523a.861.861 0 01-.86-.86v-1.718a.861.861 0 01.86-.86H79.28a.861.861 0 01.86.86z"/><path data-name="Caminho 4669" d="M84.439 27.306H60.363a4.3 4.3 0 00-4.3 4.3v9.459H38.007a2.583 2.583 0 00-2.58 2.578v34.395a2.583 2.583 0 002.58 2.58H82.72a2.583 2.583 0 002.58-2.58V46.136a4.307 4.307 0 003.439-4.212V31.606a4.3 4.3 0 00-4.3-4.3zM38.007 42.784h18.144a4.307 4.307 0 004.212 3.439H63.4l1.433 1.72H37.147v-4.3a.861.861 0 01.86-.859zM82.72 78.898H38.007a.861.861 0 01-.86-.86V49.662h29.119l.648.778a2.608 2.608 0 004.458-.778h12.207v28.376a.861.861 0 01-.86.86zM71.541 47.943v-1.72h12.038v1.72zm15.478-6.019a2.583 2.583 0 01-2.58 2.58H69.822v4.262a.9.9 0 01-1.586.574l-4.031-4.834h-3.842a2.583 2.583 0 01-2.58-2.58v-10.32a2.583 2.583 0 012.58-2.58h24.076a2.583 2.583 0 012.58 2.58z"/><path data-name="Caminho 4670" d="M50.045 70.299a9.459 9.459 0 10-9.459-9.458 9.47 9.47 0 009.459 9.458zm0-1.72a7.694 7.694 0 01-4.825-1.7l5.181-5.181h7.332a7.748 7.748 0 01-7.688 6.884zm6.041-12.563a7.7 7.7 0 011.647 3.966H52.12zM54.87 54.8l-4.825 4.825L45.22 54.8a7.7 7.7 0 019.649 0zm-10.866 1.216l4.825 4.825-4.825 4.825a7.7 7.7 0 010-9.649z"/><path data-name="Caminho 4671" d="M38.866 72.019h1.72v1.72h-1.72z"/><path data-name="Caminho 4672" d="M42.306 72.019h18.917v1.72H42.306z"/><path data-name="Caminho 4673" d="M38.866 75.458h5.159v1.72h-5.159z"/><path data-name="Caminho 4674" d="M45.745 75.458h15.478v1.72H45.745z"/></g></g></svg>