<svg data-name="Painel de resultados em tempo real" xmlns="http://www.w3.org/2000/svg" width="120" height="120"><circle data-name="Elipse 11975" cx="60" cy="60" r="60" fill="#fff"/><circle data-name="Elipse 11980" cx="5" cy="5" r="5" transform="translate(77 31)" fill="#fcd64f"/><path data-name="Ret창ngulo 2615" fill="#fcd64f" d="M46 62h3v5h-3z"/><path data-name="Ret창ngulo 2616" fill="#fcd64f" d="M39 59h4v8h-4z"/><path data-name="Ret창ngulo 2617" fill="#fcd64f" d="M52 55h4v12h-4z"/><path data-name="Ret창ngulo 2618" fill="#fcd64f" d="M59 58h4v9h-4z"/><g data-name="001-dashboard" fill="#231f20"><path data-name="Caminho 4676" d="M82.993 59.258V42.396a6.016 6.016 0 10-6.879-5.95H34.841v34.395h25.84a13.749 13.749 0 1022.312-11.583zm-.859-27.111a4.3 4.3 0 11-4.3 4.3 4.3 4.3 0 014.3-4.3zm-45.573 6.019h39.807a6.015 6.015 0 00.952 1.879l-5.259 5.259a2.49 2.49 0 00-2.211 0l-1.733-1.733a2.556 2.556 0 00.258-1.106 2.58 2.58 0 00-5.159 0 2.537 2.537 0 00.259 1.1l-4.312 4.312a2.556 2.556 0 00-1.106-.258 2.58 2.58 0 102.58 2.58 2.537 2.537 0 00-.259-1.1l4.312-4.312a2.493 2.493 0 002.211 0l1.733 1.733a2.555 2.555 0 00-.258 1.106 2.58 2.58 0 005.159 0 2.537 2.537 0 00-.259-1.1l5.26-5.259a5.982 5.982 0 002.738 1.137v15.681a13.674 13.674 0 00-17.2 2.826v-3.828h-5.157v10.318h1.971a13.793 13.793 0 00-.207 1.72h-24.12zm34.395 8.6a.86.86 0 11-.86.86.861.861 0 01.859-.862zm-6.019-4.3a.86.86 0 11.86.86.861.861 0 01-.856-.861zm-6.019 7.739a.86.86 0 11-.86-.86.861.861 0 01.859.859zM74.395 76.86a6.879 6.879 0 116.879-6.879 6.887 6.887 0 01-6.879 6.879zM62.357 63.335a13.654 13.654 0 00-1.022 2.347h-.7v-6.879h1.72zm11.178-5.348v3.44a8.581 8.581 0 00-6.973 12.084l-2.983 1.716a12 12 0 019.956-17.24zm.86 24.032a12.032 12.032 0 01-9.964-5.292l2.995-1.729a8.57 8.57 0 0013.938 0l2.995 1.729a12.032 12.032 0 01-9.964 5.292zm10.815-6.792l-2.983-1.722a8.581 8.581 0 00-6.972-12.078v-3.44a12 12 0 019.955 17.24z"/><path data-name="Caminho 4677" d="M74.395 64.822a5.159 5.159 0 105.159 5.159 5.164 5.164 0 00-5.159-5.159zm0 8.6a3.439 3.439 0 113.441-3.441 3.443 3.443 0 01-3.441 3.441z"/><path data-name="Caminho 4678" d="M38.28 39.886H40v1.72h-1.72z"/><path data-name="Caminho 4679" d="M41.72 39.886h12.038v1.72H41.72z"/><path data-name="Caminho 4680" d="M38.28 43.325H40v1.72h-1.72z"/><path data-name="Caminho 4681" d="M41.72 43.325h12.038v1.72H41.72z"/><path data-name="Caminho 4682" d="M38.28 46.764H40v1.72h-1.72z"/><path data-name="Caminho 4683" d="M41.72 46.764h12.038v1.72H41.72z"/><path data-name="Caminho 4684" d="M38.28 50.204H40v1.72h-1.72z"/><path data-name="Caminho 4685" d="M41.72 50.204h12.038v1.72H41.72z"/><path data-name="Caminho 4686" d="M38.28 67.403h5.159v-8.6H38.28zm1.72-6.88h1.72v5.159H40z"/><path data-name="Caminho 4687" d="M45.159 67.401h5.159v-6.879h-5.159zm1.72-5.159h1.72v3.439h-1.72z"/><path data-name="Caminho 4688" d="M52.038 67.401h5.159V53.643h-5.159zm1.72-12.038h1.72v10.318h-1.72z"/></g></svg>