<svg data-name="Criação de artes de anúncios" xmlns="http://www.w3.org/2000/svg" width="120" height="120"><circle data-name="Elipse 11975" cx="60" cy="60" r="60" fill="#fff"/><g data-name="001-branding"><path data-name="União 2" d="M72.079 54.893v-1.806a7.281 7.281 0 116.883.066v1.741z" fill="#fcd64f"/><path data-name="Caminho 4716" d="M83.446 43.876a.808.808 0 00-1.551.453 6.667 6.667 0 01-.633 5.2 6.741 6.741 0 01-2.369 2.393l-.338.2a.808.808 0 00-.395.694v1.02h-1.888v-3.278a2.257 2.257 0 001.487-2.117v-1.764a2.256 2.256 0 00-2.253-2.254h-.082a2.256 2.256 0 00-2.253 2.254v1.764a2.255 2.255 0 001.487 2.117v3.283H72.77v-1.02a.809.809 0 00-.395-.694l-.338-.2a6.733 6.733 0 01-2.369-2.393 6.688 6.688 0 0110.466-8.119.808.808 0 101.125-1.159 8.3 8.3 0 10-10.105 13.025v.692a1.29 1.29 0 00-.726 1.159v3.693a1.291 1.291 0 001.289 1.29h1.2v1.135a1.406 1.406 0 001.4 1.4h2.285a1.407 1.407 0 001.4-1.4v-1.137h1.2a1.291 1.291 0 001.29-1.29v-3.692a1.291 1.291 0 00-.727-1.159v-.692a8.355 8.355 0 002.883-2.934 8.282 8.282 0 00.787-6.469zm-8.66 2.8a.639.639 0 01.638-.639h.084a.639.639 0 01.638.639v1.764a.639.639 0 01-.638.639h-.084a.639.639 0 01-.638-.639zm1.611 14.361h-1.864v-.925h1.864zm2.49-2.54h-6.844v-3.041h6.844zm0 0" fill="#231f20"/><path data-name="Caminho 4717" d="M75.465 36.913a.808.808 0 00.808-.808v-1.338a.808.808 0 10-1.615 0v1.339a.808.808 0 00.807.807zm0 0" fill="#231f20"/><path data-name="Caminho 4718" d="M70.539 37.341a.808.808 0 101.474-.66l-.548-1.223a.808.808 0 10-1.474.66zm0 0" fill="#231f20"/><path data-name="Caminho 4719" d="M66.274 39.251l1 .894a.808.808 0 001.077-1.2l-1-.894a.808.808 0 00-1.077 1.2zm0 0" fill="#231f20"/><path data-name="Caminho 4720" d="M64.167 43.619l1.278.41a.808.808 0 00.493-1.538l-1.278-.41a.808.808 0 10-.493 1.538zm0 0" fill="#231f20"/><path data-name="Caminho 4721" d="M63.932 48.471a.786.786 0 00.088-.005l1.335-.145a.808.808 0 10-.175-1.606l-1.335.145a.808.808 0 00.086 1.611zm0 0" fill="#231f20"/><path data-name="Caminho 4722" d="M65.058 51.551a.81.81 0 00.814 1.4l1.159-.676a.81.81 0 10-.813-1.4zm0 0" fill="#231f20"/><path data-name="Caminho 4723" d="M79.328 37.748a.807.807 0 001.067-.407l.548-1.223a.808.808 0 10-1.474-.66l-.547 1.223a.807.807 0 00.406 1.067zm0 0" fill="#231f20"/><path data-name="Caminho 4724" d="M83.118 40.35a.806.806 0 00.538-.206l1-.894a.808.808 0 00-1.077-1.2l-1 .894a.808.808 0 00.539 1.41zm0 0" fill="#231f20"/><path data-name="Caminho 4725" d="M84.473 43.506a.807.807 0 001.016.522l1.278-.41a.808.808 0 10-.493-1.538l-1.278.41a.808.808 0 00-.523 1.016zm0 0" fill="#231f20"/><path data-name="Caminho 4726" d="M87.084 46.861l-1.335-.145a.808.808 0 10-.175 1.606l1.335.145h.088a.808.808 0 00.086-1.611zm0 0" fill="#231f20"/><path data-name="Caminho 4727" d="M85.87 51.555l-1.159-.676a.81.81 0 10-.813 1.4l1.159.676a.81.81 0 10.813-1.4zm0 0" fill="#231f20"/><path data-name="Caminho 4728" d="M41.67 52.579h8.191a.808.808 0 000-1.615H41.67a.808.808 0 100 1.615zm0 0" fill="#231f20"/><path data-name="Caminho 4729" d="M37.897 72.901h15.737a.808.808 0 000-1.615H37.897a.808.808 0 100 1.615zm0 0" fill="#231f20"/><path data-name="Subtração 5" d="M48.928 68.715h-6.055a6.007 6.007 0 01-6-6v-.251a6.007 6.007 0 016-6h6.054a5.957 5.957 0 015.146 2.911 13 13 0 00-2.95 2.149 10.726 10.726 0 00-2.45 3.063 9.486 9.486 0 002.45 3.263l.348.3a5.945 5.945 0 01-2.543.565z" fill="#fcd64f"/><path data-name="Caminho 4730" d="M64.277 64.288a4.786 4.786 0 10-4.786 4.79 4.793 4.793 0 004.786-4.79zm-4.787-3.174a3.177 3.177 0 013.167 3.008 3.22 3.22 0 01-.393.026 3.176 3.176 0 01-3.166-3.008 3.1 3.1 0 01.393-.026zm-3.171 3.174a3.172 3.172 0 011.228-2.506 4.794 4.794 0 004.716 3.98h.034a3.17 3.17 0 01-5.978-1.474zm0 0" fill="#231f20"/><path data-name="Caminho 4731" d="M79.036 77.038l-4.089-2.229a4.888 4.888 0 00-2.041-.52H58.86v-2.565c.209.01.42.017.631.017a13.5 13.5 0 0011.68-6.768 1.38 1.38 0 000-1.369 13.5 13.5 0 00-11.68-6.767c-.211 0-.421.007-.631.016V46.818a1.348 1.348 0 00-1.346-1.346H42.686a.808.808 0 100 1.615h14.559v9.939a13.39 13.39 0 00-1.7.406v-.706a1.347 1.347 0 00-1.346-1.346H37.336a1.347 1.347 0 00-1.346 1.346v11.25a1.348 1.348 0 001.346 1.346h14.472a13.513 13.513 0 005.437 2.227v2.739h-9.713a1.688 1.688 0 00-1.45.826h-8.185a.808.808 0 000 1.615h7.946v2.214h-7.946a.808.808 0 000 1.615h7.959a1.69 1.69 0 001.676 1.489h9.712v3.1H34.287V47.088h4.523a.808.808 0 100-1.615h-4.792a1.348 1.348 0 00-1.346 1.345v38.6a1.347 1.347 0 001.346 1.346h23.5a1.348 1.348 0 001.346-1.346v-3.37h14.042a4.889 4.889 0 002.041-.52l4.089-2.229a1.234 1.234 0 000-2.261zm-28.082 3.4h-3.422a.076.076 0 01-.074-.071V75.98a.075.075 0 01.074-.071h3.421zm-13.349-12.73V56.996h16.322v1.05a13.5 13.5 0 00-6.115 5.557 1.379 1.379 0 000 1.37 13.41 13.41 0 002.079 2.735zm11.677-3.42a11.846 11.846 0 0120.418 0 11.846 11.846 0 01-20.418 0zm22.461 13.073h-3.321a.808.808 0 100 1.615h3.321v1.457H52.572v-1.457h12.081a.808.808 0 100-1.615H52.572v-1.457h19.171zm3.35 2.248l-.919.5a3.22 3.22 0 01-.815.268v-4.423a3.231 3.231 0 01.815.268l.919.5zm1.615-.88V77.61l1.027.559zm0 0" fill="#231f20"/></g></svg>