<svg xmlns="http://www.w3.org/2000/svg" width="120" height="120"><circle data-name="Elipse 11975" cx="60" cy="60" r="60" fill="#fff"/><ellipse data-name="Elipse 11978" cx="7" cy="7.5" rx="7" ry="7.5" transform="translate(51 47)" fill="#fcd64f"/><ellipse data-name="Elipse 11979" cx="6" cy="5.5" rx="6" ry="5.5" transform="translate(73 63)" fill="#fcd64f"/><g data-name="001-responsive-design" fill="#231f20"><path data-name="Caminho 4656" d="M86.026 49.895h-3.255v-11a4.578 4.578 0 00-4.573-4.573h-39.4a4.578 4.578 0 00-4.573 4.573v27.922a4.556 4.556 0 00.992 2.824h-2.633a1.477 1.477 0 00-1.472 1.479v2.158a3.753 3.753 0 003.735 3.763h21.1a.851.851 0 100-1.7H34.846a2.049 2.049 0 01-2.034-2.063v-1.935h35.843v4h-8.743a.851.851 0 100 1.7h8.739v5.137a3.169 3.169 0 003.165 3.165h14.21a3.169 3.169 0 003.165-3.165V53.065a3.169 3.169 0 00-3.165-3.17zM68.655 69.641H38.283a2.9 2.9 0 01-2.357-2.824V38.895a2.874 2.874 0 012.871-2.871h39.4a2.874 2.874 0 012.873 2.871v11h-1.643V39.164a1.52 1.52 0 00-1.515-1.518H39.088a1.52 1.52 0 00-1.519 1.519v27.346a1.52 1.52 0 001.519 1.519h29.567v1.612zm9.071-30.294v2.259H43.612v-2.259zm-35.816 0v2.259h-2.64v-2.259zm26.745 13.718v13.263H39.27V43.307h38.456v6.588H71.82a3.169 3.169 0 00-3.165 3.165zm1.7 3.34h1.711v1.7h-1.71zM87.49 82.178a1.465 1.465 0 01-1.464 1.464H71.82a1.465 1.465 0 01-1.464-1.464V79.74H87.49zm0-4.14H70.356V59.81H87.49zm0-19.93H73.768v-1.7H87.49zm0-3.405H70.356v-1.638a1.465 1.465 0 011.464-1.464h14.206a1.465 1.465 0 011.464 1.464v1.639z"/><path data-name="Caminho 4657" d="M78.019 82.363h1.809a.851.851 0 000-1.7h-1.809a.851.851 0 100 1.7z"/><path data-name="Caminho 4659" d="M57.931 46.853a7.965 7.965 0 107.965 7.965 7.974 7.974 0 00-7.965-7.965zm0 14.229a6.264 6.264 0 116.264-6.264 6.271 6.271 0 01-6.264 6.264z"/><path data-name="Caminho 4661" d="M78.923 75.853a7.062 7.062 0 006.627-4.656.851.851 0 00-1.6-.577 5.341 5.341 0 11.066-3.425.851.851 0 101.622-.514 7.043 7.043 0 10-6.714 9.171z"/></g></svg>