<svg xmlns="http://www.w3.org/2000/svg" width="120" height="120"><circle data-name="Elipse 11975" cx="60" cy="60" r="60" fill="#fff"/><circle data-name="Elipse 11977" cx="7" cy="7" r="7" transform="translate(48 33)" fill="#fcd64f"/><rect data-name="Retângulo 2611" width="14" height="13" rx="6" transform="translate(72 35)" fill="#fcd64f"/><rect data-name="Retângulo 2612" width="14" height="13" rx="6" transform="translate(71 63)" fill="#fcd64f"/><rect data-name="Retângulo 2613" width="11" height="14" rx="5.5" transform="translate(34 43)" fill="#fcd64f"/><g data-name="001-bullhorn" fill="#231f20"><path data-name="Caminho 4641" d="M64.208 79.988h-1.785v-8.73a.891.891 0 00-1.782 0v8.73H37.478V62.17h7.413a.891.891 0 000-1.782h-8.3a.891.891 0 00-.891.891v18.709h-1.786a.891.891 0 00-.891.893v1.782a4.455 4.455 0 004.455 4.455h23.166a4.455 4.455 0 004.455-4.455v-1.782a.891.891 0 00-.891-.893zm-.891 2.673a2.673 2.673 0 01-2.673 2.673h-1.782v-.891a.891.891 0 10-1.782 0v.891H41.042v-.891a.891.891 0 10-1.782 0v.891h-1.782a2.673 2.673 0 01-2.673-2.673v-.891h28.512z"/><path data-name="Caminho 4642" d="M79.356 39.004h1.782a.891.891 0 000-1.782h-1.782a2.673 2.673 0 00-2.673 2.673v.891h-.891a.891.891 0 000 1.782h.891v2.673a.891.891 0 101.782 0v-2.673h.891a.891.891 0 100-1.782h-.891v-.891a.891.891 0 01.891-.891z"/><path data-name="Caminho 4643" d="M83.811 33.658H73.119a2.673 2.673 0 00-2.673 2.673v1.782a.891.891 0 001.782 0v-1.782a.891.891 0 01.891-.891h10.692a.891.891 0 01.891.891v10.692a.891.891 0 01-.891.891H73.119a.891.891 0 01-.891-.891v-5.346a.891.891 0 10-1.782 0v5.346a2.673 2.673 0 002.673 2.673h10.692a2.673 2.673 0 002.673-2.673V36.331a2.673 2.673 0 00-2.673-2.673z"/><path data-name="Caminho 4644" d="M74.901 69.298a3.564 3.564 0 103.564-3.564 3.564 3.564 0 00-3.564 3.564zm5.346 0a1.782 1.782 0 11-1.782-1.782 1.782 1.782 0 011.782 1.782z"/><path data-name="Caminho 4645" d="M83.811 61.279H73.119a2.673 2.673 0 00-2.673 2.673v10.692a2.673 2.673 0 002.673 2.673h10.692a2.673 2.673 0 002.673-2.673v-1.782a.891.891 0 10-1.782 0v1.782a.891.891 0 01-.891.891H73.119a.891.891 0 01-.891-.891V63.952a.891.891 0 01.891-.891h10.692a.891.891 0 01.891.891v5.346a.891.891 0 001.782 0v-5.346a2.673 2.673 0 00-2.673-2.673z"/><path data-name="Caminho 4646" d="M53.044 44.217a.886.886 0 00.873.036l5.346-2.673a.891.891 0 000-1.586l-5.346-2.672a.891.891 0 00-1.292.791v5.346a.891.891 0 00.419.758zm1.363-4.66l2.459 1.23-2.459 1.23z"/><path data-name="Caminho 4647" d="M55.298 48.805a8.019 8.019 0 10-8.019-8.019 8.019 8.019 0 008.019 8.019zm0-14.256a6.237 6.237 0 11-6.237 6.237 6.237 6.237 0 016.237-6.237z"/><path data-name="Caminho 4648" d="M64.208 52.369a.891.891 0 00.713-.356l2.673-3.564a.891.891 0 00-1.426-1.069l-2.673 3.563a.891.891 0 00.713 1.426z"/><path data-name="Caminho 4649" d="M66.169 55.578a.891.891 0 001.247.178l3.565-2.678a.891.891 0 10-1.069-1.426l-3.564 2.673a.891.891 0 00-.179 1.253z"/><path data-name="Caminho 4650" d="M74.901 57.537a.891.891 0 00-1.07-.71l-4.455.891a.9.9 0 10.178 1.782h.178l4.455-.891a.891.891 0 00.713-1.069z"/><path data-name="Caminho 4651" d="M33.914 57.715h10.692a.891.891 0 00.891-.891V42.568a.891.891 0 00-.891-.891H33.914a.891.891 0 00-.891.891v14.256a.891.891 0 00.891.891zm.891-14.256h8.91v12.474h-8.91z"/><path data-name="Caminho 4652" d="M41.042 45.241H39.26a.891.891 0 100 1.782h1.782a.891.891 0 100-1.782z"/><path data-name="Caminho 4653" d="M41.042 48.805h-3.564a.891.891 0 100 1.782h3.564a.891.891 0 100-1.782z"/><path data-name="Caminho 4654" d="M41.042 52.369h-3.564a.891.891 0 100 1.782h3.564a.891.891 0 100-1.782z"/><path data-name="Caminho 4655" d="M63.424 57.448a.894.894 0 10-1.55.891l3.929 6.8-14.256 5.345h-.134l-2.317 1.336-1.541.891a1.779 1.779 0 01-2.432-.65l-1.782-3.083a1.782 1.782 0 01.668-2.352l3.083-1.782 2.228 3.858a.894.894 0 001.55-.891l-2.3-3.974 11.186-9.222.365.633a.894.894 0 001.55-.891l-.891-1.541a.9.9 0 00-1.345-.241L46.956 62.857l-3.8 2.192a3.564 3.564 0 00-1.639 4.036l-.891.508a2.671 2.671 0 001.337 4.99 2.727 2.727 0 001.337-.356l.891-.508a3.457 3.457 0 001.559.927 3.377 3.377 0 00.936.125 3.511 3.511 0 001.782-.481l.775-.446 1.782 3.092a2.674 2.674 0 104.631-2.675l-1.622-2.825 13.365-5.016a.894.894 0 00.463-1.274zM42.378 72.675a.89.89 0 11-.891-1.541l.775-.446.891 1.541zm11.726 2.494a.89.89 0 01-1.541.891l-1.783-3.091 1.476-.846h.071z"/></g></svg>