<svg data-name="Relatórios individuais" xmlns="http://www.w3.org/2000/svg" width="120" height="120"><circle data-name="Elipse 11975" cx="60" cy="60" r="60" fill="#fff"/><path data-name="Subtração 6" d="M72 61H57a6.007 6.007 0 01-6-6V37a6.007 6.007 0 016-6h14.314v6.89H78V55a6.007 6.007 0 01-6 6z" fill="#fcd64f"/><g data-name="computer-files-graph-digital-data analytics" fill="#231f20"><path data-name="Caminho 4745" d="M37.124 46.538h2.705v-1.8h-3.605a.9.9 0 00-.9.9v3.607h1.8z"/><path data-name="Caminho 4746" d="M54.263 33.916h3.607v1.8h-3.607z"/><path data-name="Caminho 4747" d="M54.263 37.524h5.411v1.8h-5.411z"/><path data-name="Caminho 4748" d="M84.019 35.72h-1.8v-1.8a.9.9 0 00-.9-.9h-6.278l-2.092-2.4a.9.9 0 00-.686-.311H51.557a.9.9 0 00-.9.9v10.824H35.324a2.714 2.714 0 00-2.705 2.705v28.859a2.714 2.714 0 002.705 2.705h18.939v2.707h-5.411a.9.9 0 00-.9.9v3.607a.9.9 0 00.9.9h18.037a.9.9 0 00.9-.9v-3.607a.9.9 0 00-.9-.9h-5.411v-2.707h18.941a2.714 2.714 0 002.7-2.705v-5.411h.9a.9.9 0 00.9-.9V36.622a.9.9 0 00-.9-.902zm-3.607-.9v28.857H55.165v-.9h23.447a.9.9 0 00.9-.9V38.453a.882.882 0 00-.225-.586l-2.66-3.048zm-8.116-2.2l4.3 4.906h-4.3zm-19.837-.511h18.037v6.313a.9.9 0 00.9.9h6.313v21.649h-25.25zm13.528 48.7v1.8H49.754v-1.8zm-9.92-1.8v-2.707h3.607v2.707zm25.252-5.412a.9.9 0 01-.9.9H35.324a.9.9 0 01-.9-.9v-1.8h46.895zm0-3.607h-46.9V44.738a.9.9 0 01.9-.9h15.337v18.035a.9.9 0 00.9.9h1.8v1.8a.9.9 0 00.9.9h1.8v1.8a.9.9 0 00.9.9h24.363zm1.8-3.607H57.87v-.9h23.449a.9.9 0 00.9-.9V37.524h.9z"/><path data-name="Caminho 4749" d="M74.103 57.364V42.031a.9.9 0 00-.9-.9h-3.609a.9.9 0 00-.9.9v15.333h-.9V45.64a.9.9 0 00-.9-.9h-3.613a.9.9 0 00-.9.9v11.724h-.9v-5.411a.9.9 0 00-.9-.9h-3.613a.9.9 0 00-.9.9v5.411h-1.805v1.8h21.644v-1.8zm-14.429 0h-1.8v-4.509h1.8zm6.313 0h-1.8V46.542h1.8zm6.313 0h-1.8V42.931h1.8z"/><path data-name="Caminho 4750" d="M43.441 48.346a6.313 6.313 0 106.313 6.313 6.313 6.313 0 00-6.313-6.313zm.9 1.894a4.479 4.479 0 012.087 1.062l-2.081 2.081zm-1.8 0v4.419h-3.613a4.517 4.517 0 013.607-4.419zm.9 8.928a4.509 4.509 0 01-4.127-2.705h4.127a.9.9 0 00.637-.264l3.438-3.433a4.455 4.455 0 01.434 1.894 4.515 4.515 0 01-4.509 4.509z"/><path data-name="Caminho 4751" d="M38.03 62.775h2.705v1.8H38.03z"/><path data-name="Caminho 4752" d="M42.539 62.775h6.313v1.8h-6.313z"/><path data-name="Caminho 4753" d="M38.03 66.382h4.509v1.8H38.03z"/><path data-name="Caminho 4754" d="M44.343 66.382h4.509v1.8h-4.509z"/></g></svg>