<svg data-name="Suporte especializado" xmlns="http://www.w3.org/2000/svg" width="119" height="120"><ellipse data-name="Elipse 11975" cx="59.5" cy="60" rx="59.5" ry="60" fill="#fff"/><circle data-name="Elipse 11982" cx="9" cy="9" r="9" transform="translate(32 32)" fill="#fcd64f"/><g data-name="001-customer-service"><path data-name="Caminho 4759" d="M44.081 41.464a.826.826 0 10-.826-.826.826.826 0 00.826.826zm-6.607 0a.826.826 0 10-.826-.826.826.826 0 00.825.826zm3.3 0a.826.826 0 10-.826-.826.826.826 0 00.829.826zm-.175 8.753h7.482a1.13 1.13 0 00.576-2.1l-1.138-.673a9.578 9.578 0 10-16.32-6.802 9.68 9.68 0 009.4 9.575zm-5.386-15.22a7.868 7.868 0 015.681-2.28 7.926 7.926 0 015.092 13.9 1.206 1.206 0 00.178 1.947h.008-5.553a7.925 7.925 0 01-5.406-13.567zm51.544 50.8h-.826v-12.3a8.164 8.164 0 00-4.86-7.459l-4.353-1.866a6.52 6.52 0 002.795-1.757 6.842 6.842 0 001.848-4.643 6.571 6.571 0 00-1.582-4.273 8.551 8.551 0 01-2.007-5.5V44.04a12.976 12.976 0 00-25.953 0v3.824a8.927 8.927 0 01-2.145 5.666 6.689 6.689 0 003.193 10.664l-4.322 1.88a8.138 8.138 0 00-4.992 7.516v9.723a.826.826 0 101.652 0v-9.718a6.493 6.493 0 013.99-6l5.418-2.356v4.972h-2.491a2.478 2.478 0 00-2.464 2.739l1.361 12.844H32.025a.826.826 0 100 1.652h54.732a.826.826 0 100-1.652zm-8.242-31.233a4.939 4.939 0 011.194 3.209 5.174 5.174 0 01-1.4 3.51 4.944 4.944 0 01-3.641 1.55h-1.076l-1.414-.606a3.769 3.769 0 01-2.253-2.972 8.129 8.129 0 004.285-7.157v-6.211c.242.016.483.025.724.025a10.527 10.527 0 001.185-.067v2.152a10.2 10.2 0 002.4 6.564zM64.999 67.601a30.6 30.6 0 01-8.732-1.111v-1.967l.239-.1h.006l1.473-.641a5.424 5.424 0 003.151-3.88 8.1 8.1 0 002.264.323h2.691a8.1 8.1 0 002.272-.326 5.421 5.421 0 003.167 3.85l1.573.674.117.05v1.859a30.66 30.66 0 01-8.221 1.269zm8.224.446v2.166h-16.96V68.2a32.282 32.282 0 008.194 1.057h.566a32.305 32.305 0 008.196-1.21zm2.9-23.867a9.174 9.174 0 01-6.606-1.671.828.828 0 10-1.018 1.306 9.979 9.979 0 004.057 1.843v4.5a6.042 6.042 0 01-1.835 2.479 6.333 6.333 0 01-1.37.861 2.423 2.423 0 00-2.152-1.325h-1.936a2.421 2.421 0 100 4.842h1.936a2.425 2.425 0 002.342-1.809 14.739 14.739 0 002.907-1.923 6.48 6.48 0 01-6.36 5.284h-2.689a6.478 6.478 0 01-6.471-6.471v-6.384a22.148 22.148 0 007.886-2.827 22.436 22.436 0 007.507-7.309 11.318 11.318 0 013.8 8.6zm-8.156 10.417a.77.77 0 01-.768.767h-1.937a.769.769 0 010-1.538h1.937a.77.77 0 01.769.767zm-14.5-10.557a11.328 11.328 0 0117.532-9.476 20.8 20.8 0 01-7.033 6.9 20.537 20.537 0 01-7.818 2.692H53.47v-.116zm-3.208 15.9a4.984 4.984 0 01.681-5.349 10.55 10.55 0 002.53-6.727v-2.057h1.8v6.289a8.13 8.13 0 004.289 7.159 3.771 3.771 0 01-2.24 3.006l-1.311.57h-1.2a4.984 4.984 0 01-4.552-2.892zm28.755 12.838l-1.38 13.018H52.681l-1.382-13.018a.826.826 0 01.821-.913h26.07a.826.826 0 01.821.913zm5.265 13.018h-4.98l1.361-12.843a2.478 2.478 0 00-2.464-2.739h-3.325v-5.037l5.539 2.374a6.508 6.508 0 013.869 5.945zm-19.121-10.1a3.139 3.139 0 103.141 3.134 3.142 3.142 0 00-3.142-3.138zm0 4.625a1.487 1.487 0 111.487-1.487 1.488 1.488 0 01-1.488 1.483z" fill="#231f20"/></g></svg>