<svg data-name="Otimizações dos anúncios" xmlns="http://www.w3.org/2000/svg" width="120" height="120"><circle data-name="Elipse 11975" cx="60" cy="60" r="60" fill="#fff"/><path data-name="União 4" d="M65.614 55.887h-2.428v-7.364l1.256-.266-2.815-.17-1.04-.78-2.601-1.211v-2.947l3.641-1.3 1.994-.607h5.325l11.752-4.855v16.384l-11.542-4.35-.247.1-1.314-.078-.854 7.444z" fill="#fcd64f"/><g data-name="file-graph-website-report-Digital Marketing" fill="#231f20"><path data-name="Caminho 4734" d="M51.572 57.061h-5.328V51.73a.889.889 0 00-.892-.889 7.108 7.108 0 107.108 7.108.889.889 0 00-.888-.888zm-6.22 6.22a5.331 5.331 0 01-.889-10.589v5.257a.889.889 0 00.889.889h5.257a5.34 5.34 0 01-5.257 4.442z"/><path data-name="Caminho 4735" d="M48.018 48.175a.889.889 0 00-.889.889v6.22a.889.889 0 00.889.889h6.22a.889.889 0 00.891-.89 7.116 7.116 0 00-7.111-7.108zm.889 6.22v-4.369a5.346 5.346 0 014.369 4.369z"/><path data-name="Caminho 4736" d="M38.244 67.723h13.328V69.5H38.244z"/><path data-name="Caminho 4737" d="M38.244 71.277h13.328v1.777H38.244z"/><path data-name="Caminho 4738" d="M38.244 74.831h1.777v1.777h-1.777z"/><path data-name="Caminho 4739" d="M41.798 74.831h9.774v1.777h-9.774z"/><path data-name="Caminho 4740" d="M85.336 58.838H74.673v-7.5l5.918 2.115a.883.883 0 001.191-.835v-5.331h.889a2.666 2.666 0 000-5.331h-.89v-5.331a.9.9 0 00-.373-.729.92.92 0 00-.817-.107l-5.918 2.115v-2.168a1.782 1.782 0 00-1.772-1.777H44.463a.918.918 0 00-.631.258l-9.773 9.773a.918.918 0 00-.258.631v38.207a.889.889 0 00.889.889h19.547v2.666a.889.889 0 00.889.889h30.21a.889.889 0 00.889-.889V59.726a.889.889 0 00-.889-.889zm-3.554-15.1h.889a.889.889 0 110 1.777h-.89zm-1.781-5.852v13.473l-10.662-3.8v-5.87zm-36.43-.9v6.744h-6.74zm10.666 22.74v22.213H35.578V45.51h8.885a.889.889 0 00.889-.889v-8.885h27.549v2.8l-4.6 1.643h-6.956a.889.889 0 00-.889.889v.2l-2.879.72a.889.889 0 00-.675.862v3.554a.889.889 0 00.675.862l2.879.72v.2a.889.889 0 00.889.889h.889v7.108a.889.889 0 00.889.889h3.554a.879.879 0 00.88-.791l.8-7.188 4.54 1.626v8.13H55.126a.889.889 0 00-.889.889zm8-12.439v-5.328h5.331v5.331zm4.333 1.772l-.693 6.22h-1.866v-6.22zm-6.113-5.971v3.057l-1.777-.444v-2.164zm23.99 42.4H56.014V65.946h28.433zm0-21.325H56.014v-3.548h28.433z"/><path data-name="Caminho 4741" d="M57.791 61.503h1.777v1.777h-1.777z"/><path data-name="Caminho 4742" d="M61.345 61.503h1.777v1.777h-1.777z"/><path data-name="Caminho 4743" d="M64.899 61.503h1.777v1.777h-1.777z"/><path data-name="Caminho 4744" d="M79.116 81.051v-11.55a.889.889 0 00-.889-.889h-3.559a.889.889 0 00-.889.889v11.55h-.889v-8a.889.889 0 00-.889-.889h-3.548a.889.889 0 00-.889.889v8h-.889V75.72a.889.889 0 00-.889-.889h-3.552a.889.889 0 00-.889.889v5.331h-1.777v1.777h21.325v-1.777zm-14.216 0h-1.778v-4.439h1.777zm6.22 0h-1.778v-7.108h1.777zm6.22 0h-1.779V70.389h1.777z"/></g></svg>