<svg xmlns="http://www.w3.org/2000/svg" width="28.845" height="28.844"><path data-name="Icon awesome-whatsapp" d="M24.524 4.191A14.3 14.3 0 002.028 21.44L0 28.844l7.578-1.994a14.25 14.25 0 006.831 1.738h.006A14.431 14.431 0 0028.844 14.3a14.35 14.35 0 00-4.32-10.108zM14.416 26.185a11.859 11.859 0 01-6.052-1.655l-.431-.258-4.495 1.178 1.2-4.385-.283-.451A11.9 11.9 0 1126.43 14.3a12.013 12.013 0 01-12.014 11.885zm6.516-8.9c-.354-.18-2.112-1.043-2.44-1.159s-.567-.18-.8.18-.921 1.159-1.133 1.4-.418.27-.773.09a9.722 9.722 0 01-4.866-4.246c-.367-.631.367-.586 1.049-1.951a.662.662 0 00-.032-.625c-.09-.18-.8-1.938-1.1-2.653-.29-.7-.586-.6-.8-.612s-.444-.013-.682-.013a1.323 1.323 0 00-.953.444 4.013 4.013 0 00-1.249 2.981 7 7 0 001.455 3.7 15.96 15.96 0 006.1 5.4c2.266.979 3.155 1.062 4.288.895a3.658 3.658 0 002.408-1.7 2.987 2.987 0 00.206-1.7c-.086-.166-.324-.255-.679-.429z" fill="#ecd5d1" opacity=".77"/></svg>