<svg data-name="Planejamento de anúncios" xmlns="http://www.w3.org/2000/svg" width="120" height="120"><circle data-name="Elipse 11975" cx="60" cy="60" r="60" fill="#fff"/><path data-name="Caminho 4715" d="M60.849 40.287l1.214 2.427v3.988s7.455 1.907 9.188 9.015a17.727 17.727 0 01-1.734 12.656h6.241s3.814-9.189-1.213-18.377-13.696-9.709-13.696-9.709z" fill="#fcd64f"/><g data-name="001-strategy" fill="#231f20"><path data-name="Caminho 4701" d="M60.695 81.034a.942.942 0 11-.941-.941.941.941 0 01.941.941zm0 0"/><path data-name="Caminho 4702" d="M55.114 63.759a15.244 15.244 0 00-5.8 10.123 2.827 2.827 0 00-2.74 2.822v3.663a6.561 6.561 0 00-4.709 6.317.941.941 0 00.941.942h33.895a.941.941 0 00.942-.941 6.561 6.561 0 00-4.707-6.317v-3.664a2.828 2.828 0 00-2.636-2.818 8.228 8.228 0 01.267-4.244h5.008a.942.942 0 00.9-.662 26.61 26.61 0 00.67-15.618C75.133 45.32 67.384 39.42 60.859 39.42h-4.777a.941.941 0 00-.941.941v5.318a6.568 6.568 0 00-5.586 6.1l-4.03 4.03a2.824 2.824 0 000 4l2.305 2.3a3.752 3.752 0 005.258.051c.591-.476 2.421-3.147 5.356-2.093a13 13 0 01-3.329 3.695zm15.938 12.945v3.389H63.52a.941.941 0 100 1.883h7.532a4.691 4.691 0 014.613 3.766H43.841a4.69 4.69 0 014.614-3.766h7.532a.941.941 0 100-1.883h-7.531v-3.389a.942.942 0 01.941-.941H70.11a.942.942 0 01.941.941zm4.264-22.884a24.193 24.193 0 01-.438 13.939H71.16c1.17-3.7 2.161-7.315.727-13.05a12.545 12.545 0 00-9.215-8.836v-2.7a3.735 3.735 0 00-.445-1.773c5.418.765 11.445 5.839 13.089 12.42zm-15.1 6.947a6.58 6.58 0 004.751-.7.942.942 0 10-.834-1.688 4.4 4.4 0 01-4.279.238 5.731 5.731 0 00-5.166-.13 9.871 9.871 0 00-2.879 2.282 1.87 1.87 0 01-2.646 0l-2.306-2.3a.942.942 0 010-1.332l4.294-4.294a.941.941 0 00.276-.666 4.676 4.676 0 014.657-4.684.941.941 0 00.941-.941v-5.249h1.9a1.871 1.871 0 011.867 1.872v3.466a.941.941 0 00.782.928 10.684 10.684 0 018.489 7.6c1.407 5.627.326 8.789-1.084 13.249a10.722 10.722 0 00-.594 5.465H51.214a13.317 13.317 0 015.029-8.614 14.891 14.891 0 003.97-4.5zm0 0"/><path data-name="Caminho 4703" d="M56.929 52.224h-1.883a.942.942 0 100 1.883h1.883a.942.942 0 000-1.883zm0 0"/></g><g data-name="001-social-media"><g data-name="Grupo 4540"><g data-name="Grupo 4542" fill="#231f20"><path data-name="Caminho 4705" d="M51.3 31.314h-7.482a1.436 1.436 0 00-1.433 1.437v7.481a1.436 1.436 0 001.434 1.434H51.3a1.436 1.436 0 001.434-1.434v-7.481a1.436 1.436 0 00-1.434-1.437zm.357 8.915a.358.358 0 01-.357.357h-7.482a.358.358 0 01-.357-.357v-7.478a.358.358 0 01.357-.357h7.481a.358.358 0 01.357.357z"/><path data-name="Caminho 4706" d="M47.668 34.111a2.422 2.422 0 102.422 2.422 2.425 2.425 0 00-2.422-2.422zm0 3.767a1.345 1.345 0 111.345-1.345 1.346 1.346 0 01-1.345 1.345z"/></g></g><g data-name="Grupo 4543" fill="#231f20"><path data-name="Caminho 4708" d="M78.12 39.381a.111.111 0 01-.157 0l-.3-.3a.539.539 0 10-.762.762l.3.3a1.19 1.19 0 001.681 0l1.541-1.541a1.19 1.19 0 000-1.681l-.3-.3a.538.538 0 10-.761.762l.3.3a.112.112 0 010 .158z"/><path data-name="Caminho 4713" d="M78.759 33.329a5.15 5.15 0 00-4.61 7.445l-.521 1.945a.538.538 0 00.659.659l1.817-.487a5.148 5.148 0 005.833-.362.538.538 0 10-.665-.847 4.071 4.071 0 01-4.778.181.538.538 0 00-.439-.073l-1.145.307.334-1.248a.539.539 0 00-.049-.4 4.073 4.073 0 117.265-.269.538.538 0 00.978.451 5.15 5.15 0 00-4.678-7.3z"/></g><g data-name="Grupo 4541" fill="#231f20"><path data-name="Caminho 4704" d="M37.049 68.248a.865.865 0 00.863 0l2.332-1.347a.863.863 0 000-1.495l-2.332-1.347a.863.863 0 00-1.295.747v2.693a.865.865 0 00.432.749zm.645-3.07l1.69.976-1.69.976z"/><path data-name="Caminho 4714" d="M42.626 61.612h-4.983a.538.538 0 000 1.077h4.983a.522.522 0 01.522.522v5.887a.522.522 0 01-.522.522h-8.351a.522.522 0 01-.522-.522v-5.887a.522.522 0 01.522-.522h1.216a.538.538 0 100-1.077h-1.216a1.6 1.6 0 00-1.6 1.6v5.887a1.6 1.6 0 001.6 1.6h8.351a1.6 1.6 0 001.6-1.6v-5.888a1.6 1.6 0 00-1.6-1.599z"/></g></g></svg>