<svg data-name="Banco de chamadas recebidas" xmlns="http://www.w3.org/2000/svg" width="119" height="120"><ellipse data-name="Elipse 11975" cx="59.5" cy="60" rx="59.5" ry="60" fill="#fff"/><g data-name="Grupo 4539"><g data-name="001-list" transform="translate(31.41 39.008)"><rect data-name="Retângulo 2624" width="33.287" height="5.721" rx="2.861" transform="translate(15.176 .856)" fill="#fcd64f"/><rect data-name="Retângulo 2623" width="33.287" height="5.721" rx="2.861" transform="translate(15.176 26.602)" fill="#fcd64f"/><path data-name="Caminho 4689" d="M48.663 0h-33.95a1.1 1.1 0 00-1.1 1.1v5.656a1.1 1.1 0 001.1 1.1h33.949a1.1 1.1 0 001.1-1.1V1.101a1.1 1.1 0 00-1.1-1.1zm-1.1 5.656H15.815V2.202h31.747zm0 0" fill="#231f20"/><path data-name="Caminho 4690" d="M48.663 8.715h-33.95a1.1 1.1 0 00-1.1 1.1v5.655a1.1 1.1 0 001.1 1.1H36.72a1.1 1.1 0 000-2.2H15.814v-3.454h31.747v3.454H45.47a1.1 1.1 0 000 2.2h3.192a1.1 1.1 0 001.1-1.1V9.815a1.1 1.1 0 00-1.1-1.1zm0 0" fill="#231f20"/><path data-name="Caminho 4691" d="M48.663 24.984h-33.95a1.1 1.1 0 00-1.1 1.1v5.655a1.1 1.1 0 001.1 1.1h33.949a1.1 1.1 0 001.1-1.1v-5.655a1.1 1.1 0 00-1.099-1.1zm-1.1 5.656H15.815v-3.454h31.747zm0 0" fill="#231f20"/><path data-name="Caminho 4692" d="M48.663 33.698h-33.95a1.1 1.1 0 00-1.1 1.1v5.656a1.1 1.1 0 001.1 1.1h33.949a1.1 1.1 0 001.1-1.1v-5.656a1.1 1.1 0 00-1.099-1.1zm-1.1 5.655H15.815v-3.454h31.747zm0 0" fill="#231f20"/><path data-name="Caminho 4698" d="M40.402 16.359a1.101 1.101 0 001.334-1.752l-.034-.026a1.101 1.101 0 00-1.334 1.752zm0 0" fill="#231f20"/><g data-name="001-phone-call"><g data-name="Grupo 4539"><path data-name="Caminho 4700" d="M9.456 11.07L8.098 9.712a.9.9 0 00-1.5.339.924.924 0 01-1.071.578 4.187 4.187 0 01-2.522-2.517.879.879 0 01.582-1.067.9.9 0 00.339-1.5L2.569 4.184a.969.969 0 00-1.308 0l-.921.921c-.921.97.1 3.54 2.376 5.82s4.85 3.346 5.82 2.376l.921-.921a.969.969 0 00-.001-1.31z" fill="#231f20"/></g></g><g data-name="001-phone-call"><g data-name="Grupo 4539"><path data-name="Caminho 4700" d="M9.456 36.035l-1.358-1.358a.9.9 0 00-1.5.339.924.924 0 01-1.071.578 4.187 4.187 0 01-2.522-2.517.879.879 0 01.582-1.067.9.9 0 00.339-1.5l-1.357-1.361a.969.969 0 00-1.308 0l-.921.921c-.921.97.1 3.54 2.376 5.82s4.85 3.346 5.82 2.376l.921-.921a.969.969 0 00-.001-1.31z" fill="#231f20"/></g></g></g></g></svg>